{"glyphs":{"0":{"ha":988,"x_min":68,"x_max":920,"o":"m 802 296 q 750 170 802 222 q 625 119 698 119 l 364 119 q 238 170 290 119 q 186 296 186 222 l 186 675 q 238 801 186 749 q 364 852 290 852 l 625 852 q 750 801 698 852 q 802 675 802 749 l 802 296 m 920 675 q 834 884 920 798 q 625 971 747 971 l 364 971 q 155 884 241 971 q 68 675 68 798 l 68 296 q 155 87 68 174 q 364 0 241 0 l 625 0 q 834 87 747 0 q 920 296 920 174 l 920 675 z "},"1":{"ha":602,"x_min":68,"x_max":534,"o":"m 132 640 q 163 648 148 640 l 416 806 l 416 59 q 433 18 416 35 q 475 0 450 0 q 517 18 499 0 q 534 59 534 35 l 534 912 q 503 964 534 947 q 444 962 473 981 l 100 749 q 73 712 79 736 q 81 667 68 688 q 132 640 98 640 z "},"2":{"ha":963,"x_min":68,"x_max":895,"o":"m 137 971 q 96 954 113 971 q 78 912 78 937 q 96 870 78 888 q 137 852 113 852 l 554 852 q 651 823 608 852 q 713 745 694 794 q 718 632 734 690 q 650 525 701 574 q 503 410 607 484 q 416 349 445 370 q 223 200 353 300 q 101 106 143 138 q 81 40 68 80 q 137 0 95 0 l 836 0 q 878 18 861 0 q 895 59 895 35 q 878 101 895 83 q 836 119 861 119 l 311 119 q 488 254 425 206 q 570 313 515 275 q 732 439 682 391 q 831 596 805 509 q 823 788 861 694 q 718 922 791 871 q 554 971 644 971 l 137 971 z "},"3":{"ha":953,"x_min":68,"x_max":885,"o":"m 885 699 q 805 891 885 812 q 612 971 726 971 l 127 971 q 85 954 102 971 q 68 912 68 937 q 85 870 68 888 q 127 852 102 852 l 612 852 q 722 808 676 852 q 766 699 766 762 q 722 590 766 635 q 612 545 676 545 l 340 545 q 298 528 316 545 q 281 486 281 510 q 298 444 281 461 q 340 427 316 427 l 612 427 q 722 381 676 427 q 766 273 766 336 q 722 163 766 209 q 612 119 676 119 l 127 119 q 85 101 102 119 q 68 59 68 83 q 85 18 68 35 q 127 0 102 0 l 612 0 q 805 80 726 0 q 885 273 885 159 q 805 465 885 385 q 782 486 794 476 q 805 506 794 495 q 885 699 885 586 z "},"4":{"ha":962,"x_min":68,"x_max":894,"o":"m 458 965 q 412 968 436 976 q 378 938 389 960 l 83 334 q 85 277 68 304 q 136 249 103 249 l 610 249 l 610 59 q 627 18 610 35 q 669 0 644 0 q 711 18 693 0 q 728 59 728 35 l 728 249 l 835 249 q 876 266 859 249 q 894 308 894 283 q 876 350 894 332 q 835 367 859 367 l 728 367 l 728 568 q 711 610 728 593 q 669 628 693 628 q 627 610 644 628 q 610 568 610 593 l 610 367 l 231 367 l 485 886 q 488 931 496 908 q 458 965 480 954 z "},"5":{"ha":941,"x_min":68,"x_max":873,"o":"m 68 486 q 85 444 68 461 q 127 427 102 427 l 601 427 q 709 381 665 427 q 755 273 755 336 q 709 163 755 209 q 601 119 665 119 l 127 119 q 85 101 102 119 q 68 59 68 83 q 85 18 68 35 q 127 0 102 0 l 601 0 q 793 80 713 0 q 873 273 873 159 q 793 465 873 385 q 601 545 713 545 l 186 545 l 186 852 l 766 852 q 808 870 791 852 q 826 912 826 888 q 808 954 826 937 q 766 971 791 971 l 127 971 q 85 954 102 971 q 68 912 68 937 l 68 486 z "},"6":{"ha":941,"x_min":68,"x_max":873,"o":"m 601 427 q 709 381 665 427 q 755 273 755 336 q 709 163 755 209 q 601 119 665 119 l 340 119 q 231 163 277 119 q 186 273 186 209 q 231 381 186 336 q 340 427 277 427 l 601 427 m 790 852 q 832 870 815 852 q 850 912 850 888 q 832 954 850 937 q 790 971 815 971 l 340 971 q 148 891 227 971 q 68 699 68 812 l 68 273 q 148 80 68 159 q 340 0 227 0 l 601 0 q 793 80 713 0 q 873 273 873 159 q 793 465 873 385 q 601 545 713 545 l 340 545 q 186 497 256 545 l 186 699 q 231 808 186 762 q 340 852 277 852 l 790 852 z "},"7":{"ha":938,"x_min":68,"x_max":870,"o":"m 127 971 q 85 954 102 971 q 68 912 68 937 q 85 870 68 888 q 127 852 102 852 l 701 852 l 277 88 q 271 43 264 66 q 300 7 278 20 q 328 0 313 0 q 380 31 363 0 l 854 883 q 853 942 870 913 q 802 971 836 971 l 127 971 z "},"8":{"ha":941,"x_min":68,"x_max":873,"o":"m 601 427 q 709 381 665 427 q 755 273 755 336 q 709 163 755 209 q 601 119 665 119 l 340 119 q 231 163 277 119 q 186 273 186 209 q 231 381 186 336 q 340 427 277 427 l 601 427 m 186 699 q 231 808 186 762 q 340 852 277 852 l 601 852 q 709 808 665 852 q 755 699 755 762 q 709 590 755 635 q 601 545 665 545 l 340 545 q 231 590 277 545 q 186 699 186 635 m 68 273 q 148 80 68 159 q 340 0 227 0 l 601 0 q 793 80 713 0 q 873 273 873 159 q 793 465 873 385 q 770 486 783 476 q 793 506 783 495 q 873 699 873 586 q 793 891 873 812 q 601 971 713 971 l 340 971 q 148 891 227 971 q 68 699 68 812 q 148 506 68 586 q 171 486 159 495 q 148 465 159 476 q 68 273 68 385 z "},"9":{"ha":941,"x_min":68,"x_max":873,"o":"m 601 852 q 709 808 665 852 q 755 699 755 762 q 709 590 755 635 q 601 545 665 545 l 340 545 q 231 590 277 545 q 186 699 186 635 q 231 808 186 762 q 340 852 277 852 l 601 852 m 68 699 q 148 506 68 586 q 340 427 227 427 l 601 427 q 755 474 686 427 l 755 59 q 772 18 755 35 q 814 0 789 0 q 856 18 838 0 q 873 59 873 35 l 873 699 q 793 891 873 812 q 601 971 713 971 l 340 971 q 148 891 227 971 q 68 699 68 812 z "},"\u0000":{"ha":0,"x_min":0,"x_max":0,"o":""},"\u001d":{"ha":0,"x_min":0,"x_max":0,"o":""}," ":{"ha":610,"x_min":0,"x_max":0,"o":""}," ":{"ha":610,"x_min":0,"x_max":0,"o":""},"!":{"ha":254,"x_min":68,"x_max":186,"o":"m 127 167 q 169 184 151 167 q 186 227 186 201 l 186 913 q 169 955 186 938 q 127 972 151 972 q 85 955 102 972 q 68 913 68 938 l 68 227 q 85 184 68 201 q 127 167 102 167 m 127 0 q 169 18 151 0 q 186 59 186 35 l 186 60 q 169 102 186 85 q 127 119 151 119 q 85 102 102 119 q 68 60 68 85 l 68 59 q 85 18 68 35 q 127 0 102 0 z "},"\"":{"ha":302,"x_min":68,"x_max":235,"o":"m 68 808 q 78 783 68 793 q 103 772 89 772 q 128 783 118 772 q 139 808 139 793 l 139 936 q 128 961 139 951 q 103 971 118 971 q 78 961 89 971 q 68 936 68 951 l 68 808 m 163 808 q 174 783 163 793 q 199 772 184 772 q 224 783 214 772 q 235 808 235 793 l 235 936 q 224 961 235 951 q 199 971 214 971 q 174 961 184 971 q 163 936 163 951 l 163 808 z "},"#":{"ha":1131,"x_min":68,"x_max":1063,"o":"m 398 581 l 774 581 l 740 427 l 364 427 l 398 581 m 127 427 q 85 409 102 427 q 68 367 68 392 q 85 326 68 342 q 127 308 102 308 l 216 308 l 164 72 q 172 27 159 48 q 209 1 185 7 q 222 0 216 0 q 279 46 269 0 l 338 308 l 714 308 l 661 72 q 669 27 656 48 q 707 1 682 7 q 720 0 713 0 q 777 46 767 0 l 836 308 l 944 308 q 986 326 969 308 q 1004 367 1004 342 q 986 409 1004 392 q 944 427 969 427 l 861 427 l 896 581 l 1004 581 q 1045 597 1028 581 q 1063 640 1063 615 q 1045 682 1063 664 q 1004 699 1028 699 l 922 699 l 966 899 q 959 944 972 923 q 922 970 945 964 q 877 962 898 975 q 851 925 857 949 l 801 699 l 425 699 l 469 899 q 461 944 475 923 q 424 970 448 964 q 380 962 400 975 q 353 925 359 949 l 303 699 l 186 699 q 144 682 161 699 q 127 640 127 664 q 144 597 127 615 q 186 581 161 581 l 277 581 l 243 427 l 127 427 z "},"$":{"ha":1061,"x_min":68,"x_max":993,"o":"m 472 545 l 264 545 q 210 568 232 545 q 186 623 186 591 l 186 678 q 210 734 186 711 q 264 757 232 757 l 472 757 l 472 545 m 796 427 q 851 404 828 427 q 874 348 874 380 l 874 293 q 851 237 874 260 q 796 214 828 214 l 591 214 l 591 427 l 796 427 m 916 757 q 957 774 940 757 q 975 816 975 791 q 957 858 975 840 q 916 876 940 876 l 591 876 l 591 912 q 573 954 591 937 q 531 971 555 971 q 490 954 507 971 q 472 912 472 937 l 472 876 l 264 876 q 125 817 183 876 q 68 678 68 760 l 68 623 q 125 484 68 542 q 264 427 183 427 l 472 427 l 472 214 l 145 214 q 104 197 121 214 q 86 155 86 180 q 104 113 86 131 q 145 96 121 96 l 472 96 l 472 59 q 490 18 472 35 q 531 0 507 0 q 573 18 555 0 q 591 59 591 35 l 591 96 l 796 96 q 935 154 878 96 q 993 293 993 212 l 993 348 q 935 487 993 429 q 796 545 878 545 l 591 545 l 591 757 l 916 757 z "},"%":{"ha":633,"x_min":68,"x_max":566,"o":"m 127 532 q 169 549 151 532 q 186 591 186 566 l 186 592 q 169 634 186 616 q 127 652 151 652 q 85 634 102 652 q 68 592 68 616 l 68 591 q 85 549 68 566 q 127 532 102 532 m 506 319 q 548 336 530 319 q 566 378 566 353 l 566 379 q 548 421 566 404 q 506 438 530 438 q 464 421 481 438 q 447 379 447 404 l 447 378 q 464 336 447 353 q 506 319 481 319 m 424 970 q 380 962 400 975 q 353 925 359 949 l 164 72 q 172 27 159 48 q 209 1 185 7 q 222 0 216 0 q 279 46 269 0 l 469 899 q 461 944 475 923 q 424 970 448 964 z "},"&":{"ha":1058,"x_min":68,"x_max":990,"o":"m 712 427 l 712 119 l 340 119 q 231 163 277 119 q 186 273 186 209 q 231 381 186 336 q 340 427 277 427 l 712 427 m 68 273 q 148 80 68 159 q 340 0 227 0 l 771 0 q 813 18 796 0 q 831 59 831 35 l 831 427 l 931 427 q 973 444 956 427 q 990 486 990 461 q 973 528 990 510 q 931 545 956 545 l 831 545 l 831 656 q 813 698 831 681 q 771 715 796 715 q 730 698 747 715 q 712 656 712 681 l 712 545 l 340 545 q 231 590 277 545 q 186 699 186 635 q 231 808 186 762 q 340 852 277 852 l 729 852 q 770 870 753 852 q 788 912 788 888 q 770 954 788 937 q 729 971 753 971 l 340 971 q 148 891 227 971 q 68 699 68 812 q 148 506 68 586 q 171 486 159 495 q 148 465 159 476 q 68 273 68 385 z "},"'":{"ha":207,"x_min":68,"x_max":139,"o":"m 68 808 q 78 783 68 793 q 103 772 89 772 q 128 783 118 772 q 139 808 139 793 l 139 936 q 128 961 139 951 q 103 971 118 971 q 78 961 89 971 q 68 936 68 951 l 68 808 z "},"(":{"ha":542,"x_min":68,"x_max":474,"o":"m 415 1089 q 456 1107 439 1089 q 474 1148 474 1124 q 456 1190 474 1173 q 415 1208 439 1208 l 340 1208 q 148 1128 227 1208 q 68 935 68 1048 l 68 40 q 148 -153 68 -73 q 340 -233 227 -233 l 415 -233 q 456 -215 439 -233 q 474 -174 474 -198 q 456 -132 474 -149 q 415 -114 439 -114 l 340 -114 q 231 -69 277 -114 q 186 40 186 -24 l 186 935 q 231 1044 186 999 q 340 1089 277 1089 l 415 1089 z "},")":{"ha":542,"x_min":68,"x_max":474,"o":"m 127 -113 q 85 -131 102 -113 q 68 -173 68 -149 q 85 -214 68 -197 q 127 -232 102 -232 l 201 -232 q 394 -152 315 -232 q 474 41 474 -73 l 474 936 q 394 1128 474 1048 q 201 1208 315 1208 l 127 1208 q 85 1191 102 1208 q 68 1149 68 1174 q 85 1107 68 1124 q 127 1090 102 1090 l 201 1090 q 311 1044 265 1090 q 355 936 355 1000 l 355 41 q 311 -68 355 -23 q 201 -113 265 -113 l 127 -113 z "},"*":{"ha":309,"x_min":68,"x_max":241,"o":"m 229 930 q 197 938 217 951 l 178 927 l 178 949 q 155 972 178 972 q 131 949 131 972 l 131 927 l 113 938 q 80 930 92 951 q 87 898 68 910 l 109 884 l 87 871 q 80 839 68 859 q 100 827 87 827 q 113 831 107 827 l 131 842 l 131 821 q 155 797 131 797 q 178 821 178 797 l 178 842 l 197 831 q 209 827 203 827 q 229 839 222 827 q 222 871 241 859 l 200 884 l 222 898 q 229 930 241 910 z "},"+":{"ha":787,"x_min":68,"x_max":720,"o":"m 334 218 q 352 176 334 193 q 393 159 369 159 q 435 176 418 159 q 453 218 453 193 l 453 425 l 660 425 q 702 443 684 425 q 720 484 720 460 q 702 526 720 509 q 660 544 684 544 l 453 544 l 453 751 q 435 793 453 775 q 393 810 418 810 q 352 793 369 810 q 334 751 334 775 l 334 544 l 127 544 q 85 526 102 544 q 68 484 68 509 q 85 443 68 460 q 127 425 102 425 l 334 425 l 334 218 z "},",":{"ha":322,"x_min":68,"x_max":254,"o":"m 102 -99 q 131 -106 116 -106 q 183 -76 166 -106 l 242 31 q 248 76 254 52 q 219 111 241 99 q 174 116 198 123 q 139 88 151 110 l 79 -18 q 75 -64 68 -40 q 102 -99 81 -87 z "},"-":{"ha":787,"x_min":68,"x_max":720,"o":"m 68 486 q 85 444 68 461 q 127 427 102 427 l 660 427 q 702 444 684 427 q 720 486 720 461 q 702 528 720 510 q 660 545 684 545 l 127 545 q 85 528 102 545 q 68 486 68 510 z "},"­":{"ha":787,"x_min":68,"x_max":720,"o":"m 68 486 q 85 444 68 461 q 127 427 102 427 l 660 427 q 702 444 684 427 q 720 486 720 461 q 702 528 720 510 q 660 545 684 545 l 127 545 q 85 528 102 545 q 68 486 68 510 z "},".":{"ha":254,"x_min":68,"x_max":186,"o":"m 127 0 q 169 18 151 0 q 186 59 186 35 l 186 60 q 169 102 186 85 q 127 119 151 119 q 85 102 102 119 q 68 60 68 85 l 68 59 q 85 18 68 35 q 127 0 102 0 z "},"/":{"ha":452,"x_min":68,"x_max":384,"o":"m 132 0 q 189 46 179 0 l 378 899 q 371 944 384 923 q 334 970 357 964 q 289 962 310 975 q 263 925 269 949 l 73 72 q 81 27 68 48 q 119 1 94 7 q 132 0 125 0 z "},":":{"ha":254,"x_min":68,"x_max":186,"o":"m 127 0 q 169 18 151 0 q 186 59 186 35 l 186 60 q 169 102 186 85 q 127 119 151 119 q 85 102 102 119 q 68 60 68 85 l 68 59 q 85 18 68 35 q 127 0 102 0 m 127 546 q 85 529 102 546 q 68 487 68 511 l 68 486 q 85 444 68 461 q 127 427 102 427 q 169 444 151 427 q 186 486 186 461 l 186 487 q 169 529 186 511 q 127 546 151 546 z "},";":{"ha":322,"x_min":68,"x_max":254,"o":"m 102 -98 q 131 -106 116 -106 q 183 -75 166 -106 l 242 31 q 248 77 254 53 q 219 112 241 100 q 174 117 198 123 q 139 89 151 111 l 79 -18 q 75 -63 68 -39 q 102 -98 81 -86 m 191 426 q 233 444 215 426 q 250 485 250 460 l 250 486 q 233 528 250 511 q 191 546 215 546 q 149 528 166 546 q 132 486 132 511 l 132 485 q 149 444 132 460 q 191 426 166 426 z "},";":{"ha":322,"x_min":68,"x_max":254,"o":"m 102 -98 q 131 -106 116 -106 q 183 -75 166 -106 l 242 31 q 248 77 254 53 q 219 112 241 100 q 174 117 198 123 q 139 89 151 111 l 79 -18 q 75 -63 68 -39 q 102 -98 81 -86 m 191 426 q 233 444 215 426 q 250 485 250 460 l 250 486 q 233 528 250 511 q 191 546 215 546 q 149 528 166 546 q 132 486 132 511 l 132 485 q 149 444 132 460 q 191 426 166 426 z "},"<":{"ha":760,"x_min":68,"x_max":692,"o":"m 682 734 q 649 765 672 756 q 604 764 626 774 l 103 540 q 68 486 68 524 q 103 432 68 448 l 604 208 q 628 203 616 203 q 682 238 667 203 q 684 283 692 260 q 652 316 675 306 l 272 486 l 652 656 q 684 688 675 666 q 682 734 692 711 z "},"=":{"ha":787,"x_min":68,"x_max":720,"o":"m 127 642 q 85 624 102 642 q 68 582 68 606 q 85 540 68 557 q 127 523 102 523 l 660 523 q 702 540 684 523 q 720 582 720 557 q 702 624 720 606 q 660 642 684 642 l 127 642 m 660 331 q 702 349 684 331 q 720 390 720 366 q 702 432 720 414 q 660 450 684 450 l 127 450 q 85 432 102 450 q 68 390 68 414 q 85 349 68 366 q 127 331 102 331 l 660 331 z "},">":{"ha":760,"x_min":68,"x_max":692,"o":"m 78 238 q 132 203 94 203 q 156 208 144 203 l 657 432 q 692 486 692 448 q 657 540 692 524 l 156 764 q 111 765 134 774 q 78 734 88 756 q 77 688 68 711 q 108 656 85 666 l 488 486 l 108 316 q 77 283 85 306 q 78 238 68 260 z "},"?":{"ha":846,"x_min":68,"x_max":779,"o":"m 542 854 q 625 819 591 854 q 660 736 660 785 l 660 665 q 625 581 660 616 q 542 546 591 546 l 388 546 q 346 529 363 546 q 328 487 328 511 l 328 227 q 346 184 328 201 q 388 167 363 167 q 429 184 412 167 q 447 227 447 201 l 447 427 l 542 427 q 709 497 640 427 q 779 665 779 566 l 779 736 q 709 903 779 833 q 542 972 640 972 l 127 972 q 85 955 102 972 q 68 913 68 938 q 85 871 68 888 q 127 854 102 854 l 542 854 m 388 119 q 346 102 363 119 q 328 60 328 85 l 328 59 q 346 18 328 35 q 388 0 363 0 q 429 18 412 0 q 447 59 447 35 l 447 60 q 429 102 447 85 q 388 119 412 119 z "},"@":{"ha":1131,"x_min":68,"x_max":1063,"o":"m 696 400 q 683 367 696 380 q 650 353 669 353 l 468 353 q 435 367 448 353 q 420 400 420 380 l 420 571 q 435 604 420 591 q 468 618 448 618 l 650 618 q 683 604 669 618 q 696 571 696 591 l 696 400 m 944 296 q 941 262 944 279 q 851 319 886 275 q 815 422 815 364 l 815 571 q 766 688 815 640 q 650 736 718 736 l 468 736 q 351 688 399 736 q 302 571 302 640 l 302 400 q 351 283 302 332 q 468 235 399 235 l 650 235 q 744 264 701 235 q 780 222 760 241 q 878 157 822 179 q 766 119 829 119 l 364 119 q 238 170 290 119 q 186 296 186 222 l 186 675 q 238 801 186 749 q 364 852 290 852 l 766 852 q 892 801 840 852 q 944 675 944 749 l 944 296 m 364 971 q 155 884 241 971 q 68 675 68 798 l 68 296 q 155 87 68 174 q 364 0 241 0 l 766 0 q 976 87 889 0 q 1063 296 1063 174 l 1063 675 q 976 884 1063 798 q 766 971 889 971 l 364 971 z "},"A":{"ha":1154,"x_min":68,"x_max":1086,"o":"m 1086 699 q 1006 891 1086 812 q 814 971 927 971 l 340 971 q 148 891 227 971 q 68 699 68 812 l 68 59 q 85 18 68 35 q 127 0 102 0 q 169 18 151 0 q 186 59 186 35 l 186 699 q 231 808 186 762 q 340 852 277 852 l 814 852 q 923 808 878 852 q 968 699 968 762 l 968 59 q 985 18 968 35 q 1027 0 1002 0 q 1069 18 1052 0 q 1086 59 1086 35 l 1086 699 m 814 332 q 856 349 838 332 q 873 391 873 366 q 856 433 873 416 q 814 450 838 450 l 340 450 q 298 433 316 450 q 281 391 281 416 q 298 349 281 366 q 340 332 316 332 l 814 332 z "},"B":{"ha":1166,"x_min":68,"x_max":1098,"o":"m 186 427 l 826 427 q 935 381 890 427 q 980 273 980 336 q 935 163 980 209 q 826 119 890 119 l 186 119 l 186 427 m 186 852 l 766 852 q 876 808 830 852 q 920 699 920 762 q 876 590 920 635 q 766 545 830 545 l 186 545 l 186 852 m 826 0 q 1019 80 939 0 q 1098 273 1098 159 q 1019 465 1098 385 q 962 509 993 491 q 1039 699 1039 588 q 959 891 1039 812 q 766 971 880 971 l 127 971 q 85 954 102 971 q 68 912 68 937 l 68 59 q 85 18 68 35 q 127 0 102 0 l 826 0 z "},"C":{"ha":1131,"x_min":68,"x_max":1063,"o":"m 1004 0 q 1045 18 1028 0 q 1063 59 1063 35 q 1045 101 1063 83 q 1004 119 1028 119 l 364 119 q 238 170 290 119 q 186 296 186 222 l 186 675 q 238 801 186 749 q 364 852 290 852 l 1004 852 q 1045 870 1028 852 q 1063 912 1063 888 q 1045 954 1063 937 q 1004 971 1028 971 l 364 971 q 155 884 241 971 q 68 675 68 798 l 68 296 q 155 87 68 174 q 364 0 241 0 l 1004 0 z "},"D":{"ha":1131,"x_min":68,"x_max":1063,"o":"m 127 971 q 85 954 102 971 q 68 912 68 937 l 68 59 q 85 18 68 35 q 127 0 102 0 q 169 18 151 0 q 186 59 186 35 l 186 852 l 766 852 q 892 801 840 852 q 944 675 944 749 l 944 296 q 892 170 944 222 q 766 119 840 119 l 340 119 q 298 101 316 119 q 281 59 281 83 q 298 18 281 35 q 340 0 316 0 l 766 0 q 976 87 889 0 q 1063 296 1063 174 l 1063 675 q 976 884 1063 798 q 766 971 889 971 l 127 971 z "},"E":{"ha":1131,"x_min":68,"x_max":1063,"o":"m 1063 912 q 1045 954 1063 937 q 1004 971 1028 971 l 364 971 q 155 884 241 971 q 68 675 68 798 l 68 296 q 155 87 68 174 q 364 0 241 0 l 1004 0 q 1045 18 1028 0 q 1063 59 1063 35 q 1045 101 1063 83 q 1004 119 1028 119 l 364 119 q 238 170 290 119 q 186 296 186 222 l 186 675 q 238 801 186 749 q 364 852 290 852 l 1004 852 q 1045 870 1028 852 q 1063 912 1063 888 m 340 545 q 298 528 316 545 q 281 486 281 510 q 298 444 281 461 q 340 427 316 427 l 814 427 q 856 444 838 427 q 873 486 873 461 q 856 528 873 510 q 814 545 838 545 l 340 545 z "},"F":{"ha":1131,"x_min":68,"x_max":1063,"o":"m 364 971 q 155 884 241 971 q 68 675 68 798 l 68 59 q 85 18 68 35 q 127 0 102 0 q 169 18 151 0 q 186 59 186 35 l 186 675 q 238 801 186 749 q 364 852 290 852 l 1004 852 q 1045 870 1028 852 q 1063 912 1063 888 q 1045 954 1063 937 q 1004 971 1028 971 l 364 971 m 873 486 q 856 528 873 510 q 814 545 838 545 l 340 545 q 298 528 316 545 q 281 486 281 510 q 298 444 281 461 q 340 427 316 427 l 814 427 q 856 444 838 427 q 873 486 873 461 z "},"G":{"ha":1131,"x_min":68,"x_max":1063,"o":"m 1004 0 q 1045 18 1028 0 q 1063 59 1063 35 l 1063 486 q 1045 528 1063 510 q 1004 545 1028 545 l 471 545 q 429 528 446 545 q 411 486 411 510 q 429 444 411 461 q 471 427 446 427 l 944 427 l 944 59 q 962 18 944 35 q 1004 0 979 0 m 68 273 q 148 80 68 159 q 340 0 227 0 l 790 0 q 832 18 815 0 q 850 59 850 35 q 832 101 850 83 q 790 119 815 119 l 340 119 q 231 163 277 119 q 186 273 186 209 l 186 699 q 231 808 186 762 q 340 852 277 852 l 1004 852 q 1045 870 1028 852 q 1063 912 1063 888 q 1045 954 1063 937 q 1004 971 1028 971 l 340 971 q 148 891 227 971 q 68 699 68 812 l 68 273 z "},"H":{"ha":1119,"x_min":68,"x_max":1051,"o":"m 186 912 q 169 954 186 937 q 127 971 151 971 q 85 954 102 971 q 68 912 68 937 l 68 59 q 85 18 68 35 q 127 0 102 0 q 169 18 151 0 q 186 59 186 35 l 186 912 m 991 0 q 1034 18 1016 0 q 1051 59 1051 35 l 1051 912 q 1034 954 1051 937 q 991 971 1016 971 q 949 954 967 971 q 932 912 932 937 l 932 545 l 340 545 q 298 528 316 545 q 281 486 281 510 q 298 444 281 461 q 340 427 316 427 l 932 427 l 932 59 q 949 18 932 35 q 991 0 967 0 z "},"I":{"ha":254,"x_min":68,"x_max":186,"o":"m 127 0 q 169 18 151 0 q 186 59 186 35 l 186 912 q 169 954 186 937 q 127 971 151 971 q 85 954 102 971 q 68 912 68 937 l 68 59 q 85 18 68 35 q 127 0 102 0 z "},"J":{"ha":633,"x_min":68,"x_max":566,"o":"m 293 0 q 486 80 406 0 q 566 273 566 159 l 566 912 q 548 954 566 937 q 506 971 530 971 q 464 954 481 971 q 447 912 447 937 l 447 273 q 401 163 447 209 q 293 119 357 119 l 127 119 q 85 101 102 119 q 68 59 68 83 q 85 18 68 35 q 127 0 102 0 l 293 0 z "},"K":{"ha":1154,"x_min":68,"x_max":1086,"o":"m 127 0 q 169 18 151 0 q 186 59 186 35 l 186 427 l 790 427 q 916 374 864 427 q 968 249 968 322 l 968 59 q 985 18 968 35 q 1027 0 1002 0 q 1069 18 1052 0 q 1086 59 1086 35 l 1086 249 q 1000 458 1086 372 q 968 486 985 473 q 1000 513 985 498 q 1086 722 1086 600 l 1086 912 q 1069 954 1086 937 q 1027 971 1052 971 q 985 954 1002 971 q 968 912 968 937 l 968 722 q 916 597 968 649 q 790 545 864 545 l 186 545 l 186 912 q 169 954 186 937 q 127 971 151 971 q 85 954 102 971 q 68 912 68 937 l 68 59 q 85 18 68 35 q 127 0 102 0 z "},"L":{"ha":1083,"x_min":68,"x_max":1015,"o":"m 956 0 q 998 18 981 0 q 1015 59 1015 35 q 998 101 1015 83 q 956 119 981 119 l 186 119 l 186 912 q 169 954 186 937 q 127 971 151 971 q 85 954 102 971 q 68 912 68 937 l 68 59 q 85 18 68 35 q 127 0 102 0 l 956 0 z "},"M":{"ha":1284,"x_min":68,"x_max":1217,"o":"m 127 0 q 169 18 151 0 q 186 59 186 35 l 186 755 l 604 281 q 648 260 621 260 l 648 260 q 693 281 675 260 l 1098 752 l 1098 59 q 1116 18 1098 35 q 1158 0 1133 0 q 1199 18 1182 0 q 1217 59 1217 35 l 1217 912 q 1178 968 1217 954 q 1113 951 1139 982 l 648 410 l 172 951 q 106 967 144 982 q 68 912 68 953 l 68 59 q 85 18 68 35 q 127 0 102 0 z "},"N":{"ha":1119,"x_min":68,"x_max":1051,"o":"m 127 0 q 169 18 151 0 q 186 59 186 35 l 186 770 l 950 17 q 991 0 967 0 q 1015 5 1004 0 q 1051 59 1051 20 l 1051 912 q 1034 954 1051 937 q 991 971 1016 971 q 949 954 967 971 q 932 912 932 937 l 932 201 l 169 954 q 104 966 140 982 q 68 912 68 951 l 68 59 q 85 18 68 35 q 127 0 102 0 z "},"O":{"ha":1131,"x_min":68,"x_max":1063,"o":"m 186 675 q 238 801 186 749 q 364 852 290 852 l 766 852 q 892 801 840 852 q 944 675 944 749 l 944 296 q 892 170 944 222 q 766 119 840 119 l 364 119 q 238 170 290 119 q 186 296 186 222 l 186 675 m 68 296 q 155 87 68 174 q 364 0 241 0 l 766 0 q 976 87 889 0 q 1063 296 1063 174 l 1063 675 q 976 884 1063 798 q 766 971 889 971 l 364 971 q 155 884 241 971 q 68 675 68 798 l 68 296 m 566 367 q 607 385 590 367 q 625 427 625 402 l 625 545 q 607 587 625 570 q 566 604 590 604 q 524 587 541 604 q 506 545 506 570 l 506 427 q 524 385 506 402 q 566 367 541 367 z "},"P":{"ha":1131,"x_min":68,"x_max":1063,"o":"m 766 852 q 892 801 840 852 q 944 675 944 749 l 944 652 q 892 526 944 578 q 766 474 840 474 l 340 474 q 298 456 316 474 q 281 414 281 439 q 298 373 281 390 q 340 355 316 355 l 766 355 q 976 442 889 355 q 1063 652 1063 529 l 1063 675 q 976 884 1063 798 q 766 971 889 971 l 364 971 q 155 884 241 971 q 68 675 68 798 l 68 59 q 85 18 68 35 q 127 0 102 0 q 169 18 151 0 q 186 59 186 35 l 186 675 q 238 801 186 749 q 364 852 290 852 l 766 852 z "},"Q":{"ha":1154,"x_min":68,"x_max":1086,"o":"m 186 675 q 238 801 186 749 q 364 852 290 852 l 766 852 q 892 801 840 852 q 944 675 944 749 l 944 296 q 934 236 944 265 l 897 273 q 855 290 880 290 q 814 273 831 290 q 796 231 796 256 q 814 189 796 206 l 859 144 q 766 119 817 119 l 364 119 q 238 170 290 119 q 186 296 186 222 l 186 675 m 766 0 q 944 59 865 0 l 985 18 q 1027 0 1002 0 q 1069 18 1052 0 q 1086 59 1086 35 q 1069 101 1086 83 l 1023 147 q 1063 296 1063 216 l 1063 675 q 976 884 1063 798 q 766 971 889 971 l 364 971 q 155 884 241 971 q 68 675 68 798 l 68 296 q 155 87 68 174 q 364 0 241 0 l 766 0 z "},"R":{"ha":1131,"x_min":68,"x_max":1063,"o":"m 1063 675 q 976 884 1063 798 q 766 971 889 971 l 364 971 q 155 884 241 971 q 68 675 68 798 l 68 59 q 85 18 68 35 q 127 0 102 0 q 169 18 151 0 q 186 59 186 35 l 186 675 q 238 801 186 749 q 364 852 290 852 l 766 852 q 892 801 840 852 q 944 675 944 749 l 944 652 q 892 526 944 578 q 766 474 840 474 l 340 474 q 298 456 316 474 q 281 414 281 439 q 298 373 281 390 q 340 355 316 355 l 826 355 q 909 321 875 355 q 944 237 944 286 l 944 59 q 962 18 944 35 q 1004 0 979 0 q 1045 18 1028 0 q 1063 59 1063 35 l 1063 237 q 963 430 1063 359 q 976 442 970 436 q 1063 652 1063 529 l 1063 675 z "},"S":{"ha":1131,"x_min":68,"x_max":1063,"o":"m 980 852 q 1022 870 1004 852 q 1039 912 1039 888 q 1022 954 1039 937 q 980 971 1004 971 l 304 971 q 137 902 207 971 q 68 734 68 832 l 68 663 q 137 496 68 566 q 304 427 207 427 l 826 427 q 909 392 875 427 q 944 308 944 357 l 944 237 q 909 153 944 188 q 826 119 875 119 l 151 119 q 109 101 126 119 q 92 59 92 83 q 109 18 92 35 q 151 0 126 0 l 826 0 q 994 69 924 0 q 1063 237 1063 139 l 1063 308 q 994 475 1063 406 q 826 545 924 545 l 304 545 q 221 580 256 545 q 186 663 186 614 l 186 734 q 221 818 186 783 q 304 852 256 852 l 980 852 z "},"T":{"ha":1154,"x_min":68,"x_max":1086,"o":"m 127 971 q 85 954 102 971 q 68 912 68 937 q 85 870 68 888 q 127 852 102 852 l 518 852 l 518 59 q 535 18 518 35 q 577 0 553 0 q 619 18 602 0 q 636 59 636 35 l 636 852 l 1027 852 q 1069 870 1052 852 q 1086 912 1086 888 q 1069 954 1086 937 q 1027 971 1052 971 l 127 971 z "},"U":{"ha":1131,"x_min":68,"x_max":1063,"o":"m 186 912 q 169 954 186 937 q 127 971 151 971 q 85 954 102 971 q 68 912 68 937 l 68 296 q 155 87 68 174 q 364 0 241 0 l 766 0 q 976 87 889 0 q 1063 296 1063 174 l 1063 912 q 1045 954 1063 937 q 1004 971 1028 971 q 962 954 979 971 q 944 912 944 937 l 944 296 q 892 170 944 222 q 766 119 840 119 l 364 119 q 238 170 290 119 q 186 296 186 222 l 186 912 z "},"V":{"ha":1131,"x_min":68,"x_max":1063,"o":"m 214 595 q 214 596 214 595 q 186 699 186 644 l 186 912 q 169 954 186 937 q 127 971 151 971 q 85 954 102 971 q 68 912 68 937 l 68 699 q 111 537 68 612 l 395 31 q 447 0 412 0 l 684 0 q 735 31 718 0 l 1019 537 q 1063 699 1063 612 l 1063 912 q 1045 954 1063 937 q 1004 971 1028 971 q 962 954 979 971 q 944 912 944 937 l 944 699 q 916 596 944 644 q 916 595 916 595 l 649 119 l 481 119 l 214 595 z "},"W":{"ha":1297,"x_min":68,"x_max":1229,"o":"m 364 119 q 238 170 290 119 q 186 296 186 222 l 186 912 q 169 954 186 937 q 127 971 151 971 q 85 954 102 971 q 68 912 68 937 l 68 296 q 155 87 68 174 q 364 0 241 0 l 411 0 q 621 87 534 0 q 648 119 635 102 q 675 87 661 102 q 885 0 762 0 l 932 0 q 1142 87 1055 0 q 1229 296 1229 174 l 1229 912 q 1211 954 1229 937 q 1169 971 1194 971 q 1127 954 1145 971 q 1110 912 1110 937 l 1110 296 q 1058 170 1110 222 q 932 119 1006 119 l 885 119 q 760 170 812 119 q 707 296 707 222 l 707 391 q 690 433 707 416 q 648 450 673 450 q 606 433 624 450 q 589 391 589 416 l 589 296 q 537 170 589 222 q 411 119 485 119 l 364 119 z "},"X":{"ha":1142,"x_min":68,"x_max":1074,"o":"m 68 722 q 155 513 68 600 q 186 486 170 498 q 155 458 170 473 q 68 249 68 372 l 68 59 q 85 18 68 35 q 127 0 102 0 q 169 18 151 0 q 186 59 186 35 l 186 249 q 238 374 186 322 q 364 427 290 427 l 779 427 q 904 374 852 427 q 956 249 956 322 l 956 59 q 973 18 956 35 q 1015 0 991 0 q 1057 18 1040 0 q 1074 59 1074 35 l 1074 249 q 988 458 1074 372 q 956 486 973 473 q 988 513 973 498 q 1074 722 1074 600 l 1074 912 q 1057 954 1074 937 q 1015 971 1040 971 q 973 954 991 971 q 956 912 956 937 l 956 722 q 904 597 956 649 q 779 545 852 545 l 364 545 q 238 597 290 545 q 186 722 186 649 l 186 912 q 169 954 186 937 q 127 971 151 971 q 85 954 102 971 q 68 912 68 937 l 68 722 z "},"Y":{"ha":1142,"x_min":68,"x_max":1074,"o":"m 68 640 q 155 430 68 517 q 364 343 241 343 l 542 343 l 542 59 q 559 18 542 35 q 601 0 576 0 q 643 18 625 0 q 660 59 660 35 l 660 343 l 779 343 q 988 430 901 343 q 1074 640 1074 517 l 1074 912 q 1057 954 1074 937 q 1015 971 1040 971 q 973 954 991 971 q 956 912 956 937 l 956 640 q 904 514 956 566 q 779 462 852 462 l 364 462 q 238 514 290 462 q 186 640 186 566 l 186 912 q 169 954 186 937 q 127 971 151 971 q 85 954 102 971 q 68 912 68 937 l 68 640 z "},"Z":{"ha":1116,"x_min":68,"x_max":1048,"o":"m 837 852 l 95 101 q 83 37 68 73 q 138 0 98 0 l 978 0 q 1020 18 1003 0 q 1038 59 1038 35 q 1020 101 1038 83 q 978 119 1003 119 l 279 119 l 1021 870 q 1033 935 1048 899 q 978 971 1018 971 l 138 971 q 96 954 113 971 q 78 912 78 937 q 96 870 78 888 q 138 852 113 852 l 837 852 z "},"_":{"ha":787,"x_min":68,"x_max":720,"o":"m 68 59 q 85 18 68 35 q 127 0 102 0 l 660 0 q 702 18 684 0 q 720 59 720 35 q 702 101 720 83 q 660 119 684 119 l 127 119 q 85 101 102 119 q 68 59 68 83 z "},"`":{"ha":293,"x_min":68,"x_max":225,"o":"m 174 762 q 195 767 184 762 q 218 794 212 775 q 216 830 225 812 l 161 945 q 134 970 153 963 q 98 968 116 977 q 74 941 81 960 q 76 905 68 922 l 131 789 q 174 762 144 762 z "},"a":{"ha":1154,"x_min":68,"x_max":1086,"o":"m 790 852 q 916 801 864 852 q 968 675 968 749 l 968 450 l 186 450 l 186 675 q 238 801 186 749 q 364 852 290 852 l 790 852 m 127 0 q 169 18 151 0 q 186 59 186 35 l 186 332 l 968 332 l 968 59 q 985 18 968 35 q 1027 0 1002 0 q 1069 18 1052 0 q 1086 59 1086 35 l 1086 675 q 1000 884 1086 798 q 790 971 913 971 l 364 971 q 155 884 241 971 q 68 675 68 798 l 68 59 q 85 18 68 35 q 127 0 102 0 z "},"b":{"ha":1166,"x_min":68,"x_max":1098,"o":"m 186 427 l 826 427 q 935 381 890 427 q 980 273 980 336 q 935 163 980 209 q 826 119 890 119 l 186 119 l 186 427 m 186 852 l 766 852 q 876 808 830 852 q 920 699 920 762 q 876 590 920 635 q 766 545 830 545 l 186 545 l 186 852 m 826 0 q 1019 80 939 0 q 1098 273 1098 159 q 1019 465 1098 385 q 962 509 993 491 q 1039 699 1039 588 q 959 891 1039 812 q 766 971 880 971 l 127 971 q 85 954 102 971 q 68 912 68 937 l 68 59 q 85 18 68 35 q 127 0 102 0 l 826 0 z "},"c":{"ha":1131,"x_min":68,"x_max":1063,"o":"m 1004 0 q 1045 18 1028 0 q 1063 59 1063 35 q 1045 101 1063 83 q 1004 119 1028 119 l 364 119 q 238 170 290 119 q 186 296 186 222 l 186 675 q 238 801 186 749 q 364 852 290 852 l 1004 852 q 1045 870 1028 852 q 1063 912 1063 888 q 1045 954 1063 937 q 1004 971 1028 971 l 364 971 q 155 884 241 971 q 68 675 68 798 l 68 296 q 155 87 68 174 q 364 0 241 0 l 1004 0 z "},"d":{"ha":1131,"x_min":68,"x_max":1063,"o":"m 186 852 l 720 852 q 878 787 812 852 q 944 628 944 721 l 944 343 q 878 184 944 250 q 720 119 812 119 l 186 119 l 186 852 m 720 0 q 962 100 861 0 q 1063 343 1063 201 l 1063 628 q 962 871 1063 770 q 720 971 861 971 l 127 971 q 85 954 102 971 q 68 912 68 937 l 68 59 q 85 18 68 35 q 127 0 102 0 l 720 0 z "},"e":{"ha":1131,"x_min":68,"x_max":1063,"o":"m 1004 0 q 1045 18 1028 0 q 1063 59 1063 35 q 1045 101 1063 83 q 1004 119 1028 119 l 364 119 q 238 170 290 119 q 186 296 186 222 l 186 427 l 861 427 q 903 444 886 427 q 920 486 920 461 q 903 528 920 510 q 861 545 886 545 l 186 545 l 186 675 q 238 801 186 749 q 364 852 290 852 l 1004 852 q 1045 870 1028 852 q 1063 912 1063 888 q 1045 954 1063 937 q 1004 971 1028 971 l 364 971 q 155 884 241 971 q 68 675 68 798 l 68 296 q 155 87 68 174 q 364 0 241 0 l 1004 0 z "},"f":{"ha":1131,"x_min":68,"x_max":1063,"o":"m 127 0 q 169 18 151 0 q 186 59 186 35 l 186 427 l 861 427 q 903 444 886 427 q 920 486 920 461 q 903 528 920 510 q 861 545 886 545 l 186 545 l 186 675 q 238 801 186 749 q 364 852 290 852 l 1004 852 q 1045 870 1028 852 q 1063 912 1063 888 q 1045 954 1063 937 q 1004 971 1028 971 l 364 971 q 155 884 241 971 q 68 675 68 798 l 68 59 q 85 18 68 35 q 127 0 102 0 z "},"g":{"ha":1131,"x_min":68,"x_max":1063,"o":"m 1004 0 q 1045 18 1028 0 q 1063 59 1063 35 l 1063 486 q 1045 528 1063 510 q 1004 545 1028 545 l 471 545 q 429 528 446 545 q 411 486 411 510 q 429 444 411 461 q 471 427 446 427 l 944 427 l 944 119 l 340 119 q 231 163 277 119 q 186 273 186 209 l 186 699 q 231 808 186 762 q 340 852 277 852 l 1004 852 q 1045 870 1028 852 q 1063 912 1063 888 q 1045 954 1063 937 q 1004 971 1028 971 l 340 971 q 148 891 227 971 q 68 699 68 812 l 68 273 q 148 80 68 159 q 340 0 227 0 l 1004 0 z "},"h":{"ha":1119,"x_min":68,"x_max":1051,"o":"m 127 0 q 169 18 151 0 q 186 59 186 35 l 186 427 l 932 427 l 932 59 q 949 18 932 35 q 991 0 967 0 q 1034 18 1016 0 q 1051 59 1051 35 l 1051 912 q 1034 954 1051 937 q 991 971 1016 971 q 949 954 967 971 q 932 912 932 937 l 932 545 l 186 545 l 186 912 q 169 954 186 937 q 127 971 151 971 q 85 954 102 971 q 68 912 68 937 l 68 59 q 85 18 68 35 q 127 0 102 0 z "},"i":{"ha":254,"x_min":68,"x_max":186,"o":"m 127 0 q 169 18 151 0 q 186 59 186 35 l 186 912 q 169 954 186 937 q 127 971 151 971 q 85 954 102 971 q 68 912 68 937 l 68 59 q 85 18 68 35 q 127 0 102 0 z "},"j":{"ha":633,"x_min":68,"x_max":566,"o":"m 293 0 q 486 80 406 0 q 566 273 566 159 l 566 912 q 548 954 566 937 q 506 971 530 971 q 464 954 481 971 q 447 912 447 937 l 447 273 q 401 163 447 209 q 293 119 357 119 l 127 119 q 85 101 102 119 q 68 59 68 83 q 85 18 68 35 q 127 0 102 0 l 293 0 z "},"k":{"ha":1154,"x_min":68,"x_max":1086,"o":"m 127 0 q 169 18 151 0 q 186 59 186 35 l 186 427 l 790 427 q 916 374 864 427 q 968 249 968 322 l 968 59 q 985 18 968 35 q 1027 0 1002 0 q 1069 18 1052 0 q 1086 59 1086 35 l 1086 249 q 1000 458 1086 372 q 968 486 985 473 q 1000 513 985 498 q 1086 722 1086 600 l 1086 912 q 1069 954 1086 937 q 1027 971 1052 971 q 985 954 1002 971 q 968 912 968 937 l 968 722 q 916 597 968 649 q 790 545 864 545 l 186 545 l 186 912 q 169 954 186 937 q 127 971 151 971 q 85 954 102 971 q 68 912 68 937 l 68 59 q 85 18 68 35 q 127 0 102 0 z "},"l":{"ha":1083,"x_min":68,"x_max":1015,"o":"m 956 0 q 998 18 981 0 q 1015 59 1015 35 q 998 101 1015 83 q 956 119 981 119 l 186 119 l 186 912 q 169 954 186 937 q 127 971 151 971 q 85 954 102 971 q 68 912 68 937 l 68 59 q 85 18 68 35 q 127 0 102 0 l 956 0 z "},"m":{"ha":1284,"x_min":68,"x_max":1217,"o":"m 127 0 q 169 18 151 0 q 186 59 186 35 l 186 755 l 604 281 q 648 260 621 260 l 648 260 q 693 281 675 260 l 1098 752 l 1098 59 q 1116 18 1098 35 q 1158 0 1133 0 q 1199 18 1182 0 q 1217 59 1217 35 l 1217 912 q 1178 968 1217 954 q 1113 951 1139 982 l 648 410 l 172 951 q 106 967 144 982 q 68 912 68 953 l 68 59 q 85 18 68 35 q 127 0 102 0 z "},"n":{"ha":1119,"x_min":68,"x_max":1051,"o":"m 127 0 q 169 18 151 0 q 186 59 186 35 l 186 770 l 950 17 q 991 0 967 0 q 1015 5 1004 0 q 1051 59 1051 20 l 1051 912 q 1034 954 1051 937 q 991 971 1016 971 q 949 954 967 971 q 932 912 932 937 l 932 201 l 169 954 q 104 966 140 982 q 68 912 68 951 l 68 59 q 85 18 68 35 q 127 0 102 0 z "},"o":{"ha":1131,"x_min":68,"x_max":1063,"o":"m 186 675 q 238 801 186 749 q 364 852 290 852 l 766 852 q 892 801 840 852 q 944 675 944 749 l 944 296 q 892 170 944 222 q 766 119 840 119 l 364 119 q 238 170 290 119 q 186 296 186 222 l 186 675 m 766 0 q 976 87 889 0 q 1063 296 1063 174 l 1063 675 q 976 884 1063 798 q 766 971 889 971 l 364 971 q 155 884 241 971 q 68 675 68 798 l 68 296 q 155 87 68 174 q 364 0 241 0 l 766 0 z "},"p":{"ha":1131,"x_min":68,"x_max":1063,"o":"m 186 675 q 238 801 186 749 q 364 852 290 852 l 766 852 q 892 801 840 852 q 944 675 944 749 l 944 652 q 892 526 944 578 q 766 474 840 474 l 186 474 l 186 675 m 127 0 q 169 18 151 0 q 186 59 186 35 l 186 355 l 766 355 q 976 442 889 355 q 1063 652 1063 529 l 1063 675 q 976 884 1063 798 q 766 971 889 971 l 364 971 q 155 884 241 971 q 68 675 68 798 l 68 59 q 85 18 68 35 q 127 0 102 0 z "},"q":{"ha":1154,"x_min":68,"x_max":1086,"o":"m 186 675 q 238 801 186 749 q 364 852 290 852 l 766 852 q 892 801 840 852 q 944 675 944 749 l 944 296 q 934 236 944 265 l 897 273 q 855 290 880 290 q 814 273 831 290 q 796 231 796 256 q 814 189 796 206 l 859 144 q 766 119 817 119 l 364 119 q 238 170 290 119 q 186 296 186 222 l 186 675 m 766 0 q 944 59 865 0 l 985 18 q 1027 0 1002 0 q 1069 18 1052 0 q 1086 59 1086 35 q 1069 101 1086 83 l 1023 147 q 1063 296 1063 216 l 1063 675 q 976 884 1063 798 q 766 971 889 971 l 364 971 q 155 884 241 971 q 68 675 68 798 l 68 296 q 155 87 68 174 q 364 0 241 0 l 766 0 z "},"r":{"ha":1131,"x_min":68,"x_max":1063,"o":"m 944 652 q 892 526 944 578 q 766 474 840 474 l 186 474 l 186 675 q 238 801 186 749 q 364 852 290 852 l 766 852 q 892 801 840 852 q 944 675 944 749 l 944 652 m 155 884 q 68 675 68 798 l 68 59 q 85 18 68 35 q 127 0 102 0 q 169 18 151 0 q 186 59 186 35 l 186 355 l 826 355 q 909 321 875 355 q 944 237 944 286 l 944 59 q 962 18 944 35 q 1004 0 979 0 q 1045 18 1028 0 q 1063 59 1063 35 l 1063 237 q 963 430 1063 359 q 976 442 970 436 q 1063 652 1063 529 l 1063 675 q 976 884 1063 798 q 766 971 889 971 l 364 971 q 155 884 241 971 z "},"s":{"ha":1131,"x_min":68,"x_max":1063,"o":"m 980 852 q 1022 870 1004 852 q 1039 912 1039 888 q 1022 954 1039 937 q 980 971 1004 971 l 304 971 q 137 902 207 971 q 68 734 68 832 l 68 663 q 137 496 68 566 q 304 427 207 427 l 826 427 q 909 392 875 427 q 944 308 944 357 l 944 237 q 909 153 944 188 q 826 119 875 119 l 151 119 q 109 101 126 119 q 92 59 92 83 q 109 18 92 35 q 151 0 126 0 l 826 0 q 994 69 924 0 q 1063 237 1063 139 l 1063 308 q 994 475 1063 406 q 826 545 924 545 l 304 545 q 221 580 256 545 q 186 663 186 614 l 186 734 q 221 818 186 783 q 304 852 256 852 l 980 852 z "},"t":{"ha":1154,"x_min":68,"x_max":1086,"o":"m 127 971 q 85 954 102 971 q 68 912 68 937 q 85 870 68 888 q 127 852 102 852 l 518 852 l 518 59 q 535 18 518 35 q 577 0 553 0 q 619 18 602 0 q 636 59 636 35 l 636 852 l 1027 852 q 1069 870 1052 852 q 1086 912 1086 888 q 1069 954 1086 937 q 1027 971 1052 971 l 127 971 z "},"u":{"ha":1131,"x_min":68,"x_max":1063,"o":"m 186 912 q 169 954 186 937 q 127 971 151 971 q 85 954 102 971 q 68 912 68 937 l 68 296 q 155 87 68 174 q 364 0 241 0 l 766 0 q 976 87 889 0 q 1063 296 1063 174 l 1063 912 q 1045 954 1063 937 q 1004 971 1028 971 q 962 954 979 971 q 944 912 944 937 l 944 296 q 892 170 944 222 q 766 119 840 119 l 364 119 q 238 170 290 119 q 186 296 186 222 l 186 912 z "},"v":{"ha":1131,"x_min":68,"x_max":1063,"o":"m 214 595 q 214 596 214 595 q 186 699 186 644 l 186 912 q 169 954 186 937 q 127 971 151 971 q 85 954 102 971 q 68 912 68 937 l 68 699 q 111 537 68 612 l 395 31 q 447 0 412 0 l 684 0 q 735 31 718 0 l 1019 537 q 1063 699 1063 612 l 1063 912 q 1045 954 1063 937 q 1004 971 1028 971 q 962 954 979 971 q 944 912 944 937 l 944 699 q 916 596 944 644 q 916 595 916 595 l 649 119 l 481 119 l 214 595 z "},"w":{"ha":1297,"x_min":68,"x_max":1229,"o":"m 364 119 q 238 170 290 119 q 186 296 186 222 l 186 912 q 169 954 186 937 q 127 971 151 971 q 85 954 102 971 q 68 912 68 937 l 68 296 q 155 87 68 174 q 364 0 241 0 l 411 0 q 621 87 534 0 q 648 119 635 102 q 675 87 661 102 q 885 0 762 0 l 932 0 q 1142 87 1055 0 q 1229 296 1229 174 l 1229 912 q 1211 954 1229 937 q 1169 971 1194 971 q 1127 954 1145 971 q 1110 912 1110 937 l 1110 296 q 1058 170 1110 222 q 932 119 1006 119 l 885 119 q 760 170 812 119 q 707 296 707 222 l 707 391 q 690 433 707 416 q 648 450 673 450 q 606 433 624 450 q 589 391 589 416 l 589 296 q 537 170 589 222 q 411 119 485 119 l 364 119 z "},"x":{"ha":1142,"x_min":68,"x_max":1074,"o":"m 68 722 q 155 513 68 600 q 186 486 170 498 q 155 458 170 473 q 68 249 68 372 l 68 59 q 85 18 68 35 q 127 0 102 0 q 169 18 151 0 q 186 59 186 35 l 186 249 q 238 374 186 322 q 364 427 290 427 l 779 427 q 904 374 852 427 q 956 249 956 322 l 956 59 q 973 18 956 35 q 1015 0 991 0 q 1057 18 1040 0 q 1074 59 1074 35 l 1074 249 q 988 458 1074 372 q 956 486 973 473 q 988 513 973 498 q 1074 722 1074 600 l 1074 912 q 1057 954 1074 937 q 1015 971 1040 971 q 973 954 991 971 q 956 912 956 937 l 956 722 q 904 597 956 649 q 779 545 852 545 l 364 545 q 238 597 290 545 q 186 722 186 649 l 186 912 q 169 954 186 937 q 127 971 151 971 q 85 954 102 971 q 68 912 68 937 l 68 722 z "},"y":{"ha":1142,"x_min":68,"x_max":1074,"o":"m 68 640 q 155 430 68 517 q 364 343 241 343 l 542 343 l 542 59 q 559 18 542 35 q 601 0 576 0 q 643 18 625 0 q 660 59 660 35 l 660 343 l 779 343 q 988 430 901 343 q 1074 640 1074 517 l 1074 912 q 1057 954 1074 937 q 1015 971 1040 971 q 973 954 991 971 q 956 912 956 937 l 956 640 q 904 514 956 566 q 779 462 852 462 l 364 462 q 238 514 290 462 q 186 640 186 566 l 186 912 q 169 954 186 937 q 127 971 151 971 q 85 954 102 971 q 68 912 68 937 l 68 640 z "},"z":{"ha":1116,"x_min":68,"x_max":1048,"o":"m 837 852 l 95 101 q 83 37 68 73 q 138 0 98 0 l 978 0 q 1020 18 1003 0 q 1038 59 1038 35 q 1020 101 1038 83 q 978 119 1003 119 l 279 119 l 1021 870 q 1033 935 1048 899 q 978 971 1018 971 l 138 971 q 96 954 113 971 q 78 912 78 937 q 96 870 78 888 q 138 852 113 852 l 837 852 z "},"¨":{"ha":446,"x_min":68,"x_max":378,"o":"m 68 913 q 85 871 68 888 q 127 854 102 854 q 169 871 151 854 q 186 913 186 888 l 186 914 q 169 956 186 939 q 127 973 151 973 q 85 956 102 973 q 68 914 68 939 l 68 913 m 319 854 q 361 871 343 854 q 378 913 378 888 l 378 914 q 361 956 378 939 q 319 973 343 973 q 277 956 294 973 q 260 914 260 939 l 260 913 q 277 871 260 888 q 319 854 294 854 z "},"´":{"ha":293,"x_min":68,"x_max":225,"o":"m 195 968 q 158 970 176 977 q 131 945 140 963 l 76 830 q 74 794 68 812 q 98 767 81 775 q 119 762 108 762 q 161 789 149 762 l 216 905 q 218 941 225 922 q 195 968 212 960 z "},"À":{"ha":1154,"x_min":68,"x_max":1086,"o":"m 1086 699 q 1006 891 1086 812 q 814 971 927 971 l 340 971 q 148 891 227 971 q 68 699 68 812 l 68 59 q 85 18 68 35 q 127 0 102 0 q 169 18 151 0 q 186 59 186 35 l 186 699 q 231 808 186 762 q 340 852 277 852 l 814 852 q 923 808 878 852 q 968 699 968 762 l 968 59 q 985 18 968 35 q 1027 0 1002 0 q 1069 18 1052 0 q 1086 59 1086 35 l 1086 699 m 814 332 q 856 349 838 332 q 873 391 873 366 q 856 433 873 416 q 814 450 838 450 l 340 450 q 298 433 316 450 q 281 391 281 416 q 298 349 281 366 q 340 332 316 332 l 814 332 m 580 1040 q 600 1045 590 1040 q 624 1072 618 1053 q 622 1108 631 1090 l 567 1223 q 540 1248 559 1241 q 504 1246 522 1255 q 479 1219 486 1238 q 481 1183 473 1200 l 536 1067 q 580 1040 549 1040 z "},"Á":{"ha":1154,"x_min":68,"x_max":1086,"o":"m 1086 699 q 1006 891 1086 812 q 814 971 927 971 l 340 971 q 148 891 227 971 q 68 699 68 812 l 68 59 q 85 18 68 35 q 127 0 102 0 q 169 18 151 0 q 186 59 186 35 l 186 699 q 231 808 186 762 q 340 852 277 852 l 814 852 q 923 808 878 852 q 968 699 968 762 l 968 59 q 985 18 968 35 q 1027 0 1002 0 q 1069 18 1052 0 q 1086 59 1086 35 l 1086 699 m 814 332 q 856 349 838 332 q 873 391 873 366 q 856 433 873 416 q 814 450 838 450 l 340 450 q 298 433 316 450 q 281 391 281 416 q 298 349 281 366 q 340 332 316 332 l 814 332 m 650 1246 q 614 1248 632 1255 q 587 1223 595 1241 l 532 1108 q 530 1072 524 1090 q 554 1045 536 1053 q 574 1040 564 1040 q 617 1067 604 1040 l 672 1183 q 674 1219 681 1200 q 650 1246 668 1238 z "},"Â":{"ha":1154,"x_min":68,"x_max":1086,"o":"m 1086 699 q 1006 891 1086 812 q 814 971 927 971 l 340 971 q 148 891 227 971 q 68 699 68 812 l 68 59 q 85 18 68 35 q 127 0 102 0 q 169 18 151 0 q 186 59 186 35 l 186 699 q 231 808 186 762 q 340 852 277 852 l 814 852 q 923 808 878 852 q 968 699 968 762 l 968 59 q 985 18 968 35 q 1027 0 1002 0 q 1069 18 1052 0 q 1086 59 1086 35 l 1086 699 m 814 332 q 856 349 838 332 q 873 391 873 366 q 856 433 873 416 q 814 450 838 450 l 340 450 q 298 433 316 450 q 281 391 281 416 q 298 349 281 366 q 340 332 316 332 l 814 332 m 726 1069 q 765 1088 751 1069 q 773 1124 777 1105 q 754 1155 770 1143 l 605 1261 q 549 1261 577 1281 l 400 1155 q 381 1124 385 1143 q 389 1088 378 1105 q 420 1069 401 1073 q 456 1078 439 1066 l 577 1164 l 699 1078 q 726 1069 711 1069 z "},"Ã":{"ha":1154,"x_min":68,"x_max":1086,"o":"m 1086 699 q 1006 891 1086 812 q 814 971 927 971 l 340 971 q 148 891 227 971 q 68 699 68 812 l 68 59 q 85 18 68 35 q 127 0 102 0 q 169 18 151 0 q 186 59 186 35 l 186 699 q 231 808 186 762 q 340 852 277 852 l 814 852 q 923 808 878 852 q 968 699 968 762 l 968 59 q 985 18 968 35 q 1027 0 1002 0 q 1069 18 1052 0 q 1086 59 1086 35 l 1086 699 m 814 332 q 856 349 838 332 q 873 391 873 366 q 856 433 873 416 q 814 450 838 450 l 340 450 q 298 433 316 450 q 281 391 281 416 q 298 349 281 366 q 340 332 316 332 l 814 332 m 798 1243 q 773 1251 786 1251 q 734 1234 755 1251 q 680 1191 684 1192 q 591 1207 633 1172 q 456 1250 524 1261 q 346 1178 386 1239 q 339 1142 335 1162 q 359 1112 342 1123 q 395 1105 376 1101 q 425 1126 414 1109 q 470 1156 442 1152 q 531 1133 497 1160 q 648 1089 585 1089 q 720 1105 684 1089 q 806 1170 780 1131 q 817 1209 818 1190 q 798 1243 815 1231 z "},"Ä":{"ha":1154,"x_min":68,"x_max":1086,"o":"m 1086 699 q 1006 891 1086 812 q 814 971 927 971 l 340 971 q 148 891 227 971 q 68 699 68 812 l 68 59 q 85 18 68 35 q 127 0 102 0 q 169 18 151 0 q 186 59 186 35 l 186 699 q 231 808 186 762 q 340 852 277 852 l 814 852 q 923 808 878 852 q 968 699 968 762 l 968 59 q 985 18 968 35 q 1027 0 1002 0 q 1069 18 1052 0 q 1086 59 1086 35 l 1086 699 m 814 332 q 856 349 838 332 q 873 391 873 366 q 856 433 873 416 q 814 450 838 450 l 340 450 q 298 433 316 450 q 281 391 281 416 q 298 349 281 366 q 340 332 316 332 l 814 332 m 422 1191 q 439 1149 422 1166 q 481 1132 456 1132 q 523 1149 505 1132 q 541 1191 541 1166 l 541 1192 q 523 1234 541 1217 q 481 1251 505 1251 q 439 1234 456 1251 q 422 1192 422 1217 l 422 1191 m 673 1132 q 715 1149 697 1132 q 732 1191 732 1166 l 732 1192 q 715 1234 732 1217 q 673 1251 697 1251 q 631 1234 648 1251 q 614 1192 614 1217 l 614 1191 q 631 1149 614 1166 q 673 1132 648 1132 z "},"Å":{"ha":1154,"x_min":68,"x_max":1086,"o":"m 1086 699 q 1006 891 1086 812 q 814 971 927 971 l 340 971 q 148 891 227 971 q 68 699 68 812 l 68 59 q 85 18 68 35 q 127 0 102 0 q 169 18 151 0 q 186 59 186 35 l 186 699 q 231 808 186 762 q 340 852 277 852 l 814 852 q 923 808 878 852 q 968 699 968 762 l 968 59 q 985 18 968 35 q 1027 0 1002 0 q 1069 18 1052 0 q 1086 59 1086 35 l 1086 699 m 814 332 q 856 349 838 332 q 873 391 873 366 q 856 433 873 416 q 814 450 838 450 l 340 450 q 298 433 316 450 q 281 391 281 416 q 298 349 281 366 q 340 332 316 332 l 814 332 m 577 1207 q 612 1193 597 1207 q 627 1158 627 1178 q 612 1122 627 1137 q 577 1108 597 1108 q 542 1122 557 1108 q 528 1158 528 1137 q 542 1193 528 1178 q 577 1207 557 1207 m 577 1037 q 663 1072 627 1037 q 698 1158 698 1107 q 663 1243 698 1208 q 577 1278 627 1278 q 492 1243 527 1278 q 456 1158 456 1208 q 492 1072 456 1107 q 577 1037 527 1037 z "},"Æ":{"ha":2035,"x_min":68,"x_max":1967,"o":"m 186 450 l 186 699 q 231 808 186 762 q 340 852 277 852 l 814 852 q 923 808 878 852 q 968 699 968 762 l 968 450 l 186 450 m 340 971 q 148 891 227 971 q 68 699 68 812 l 68 59 q 85 18 68 35 q 127 0 102 0 q 169 18 151 0 q 186 59 186 35 l 186 332 l 968 332 l 968 59 q 985 18 968 35 q 1027 0 1002 0 q 1069 18 1052 0 q 1086 59 1086 35 l 1086 62 q 1267 0 1166 0 l 1907 0 q 1949 18 1931 0 q 1967 59 1967 35 q 1949 101 1967 83 q 1907 119 1931 119 l 1267 119 q 1142 170 1194 119 q 1090 296 1090 222 l 1090 427 l 1765 427 q 1807 444 1790 427 q 1824 486 1824 461 q 1807 528 1824 510 q 1765 545 1790 545 l 1090 545 l 1090 675 q 1142 801 1090 749 q 1267 852 1194 852 l 1907 852 q 1949 870 1931 852 q 1967 912 1967 888 q 1949 954 1967 937 q 1907 971 1931 971 l 1267 971 q 1058 884 1145 971 q 1035 859 1046 872 q 1006 891 1022 876 q 814 971 927 971 l 340 971 z "},"Ç":{"ha":1131,"x_min":68,"x_max":1063,"o":"m 1004 854 q 1045 871 1028 854 q 1063 913 1063 888 q 1045 955 1063 937 q 1004 972 1028 972 l 364 972 q 155 885 241 972 q 68 676 68 798 l 68 297 q 155 87 68 174 q 364 1 241 1 l 506 1 l 506 -90 q 524 -131 506 -114 q 566 -149 541 -149 q 607 -131 590 -149 q 625 -90 625 -114 l 625 1 l 1004 1 q 1045 18 1028 1 q 1063 60 1063 35 q 1045 102 1063 85 q 1004 119 1028 119 l 364 119 q 238 172 290 119 q 186 297 186 223 l 186 676 q 238 802 186 749 q 364 854 290 854 l 1004 854 z "},"È":{"ha":1131,"x_min":68,"x_max":1063,"o":"m 1063 912 q 1045 954 1063 937 q 1004 971 1028 971 l 364 971 q 155 884 241 971 q 68 675 68 798 l 68 296 q 155 87 68 174 q 364 0 241 0 l 1004 0 q 1045 18 1028 0 q 1063 59 1063 35 q 1045 101 1063 83 q 1004 119 1028 119 l 364 119 q 238 170 290 119 q 186 296 186 222 l 186 675 q 238 801 186 749 q 364 852 290 852 l 1004 852 q 1045 870 1028 852 q 1063 912 1063 888 m 340 545 q 298 528 316 545 q 281 486 281 510 q 298 444 281 461 q 340 427 316 427 l 814 427 q 856 444 838 427 q 873 486 873 461 q 856 528 873 510 q 814 545 838 545 l 340 545 m 568 1040 q 589 1045 578 1040 q 612 1072 606 1053 q 610 1108 619 1090 l 555 1223 q 528 1248 547 1241 q 492 1246 510 1255 q 468 1219 475 1238 q 470 1183 462 1200 l 525 1067 q 568 1040 538 1040 z "},"É":{"ha":1131,"x_min":68,"x_max":1063,"o":"m 1063 912 q 1045 954 1063 937 q 1004 971 1028 971 l 364 971 q 155 884 241 971 q 68 675 68 798 l 68 296 q 155 87 68 174 q 364 0 241 0 l 1004 0 q 1045 18 1028 0 q 1063 59 1063 35 q 1045 101 1063 83 q 1004 119 1028 119 l 364 119 q 238 170 290 119 q 186 296 186 222 l 186 675 q 238 801 186 749 q 364 852 290 852 l 1004 852 q 1045 870 1028 852 q 1063 912 1063 888 m 340 545 q 298 528 316 545 q 281 486 281 510 q 298 444 281 461 q 340 427 316 427 l 814 427 q 856 444 838 427 q 873 486 873 461 q 856 528 873 510 q 814 545 838 545 l 340 545 m 639 1246 q 602 1248 621 1255 q 575 1223 584 1241 l 520 1108 q 518 1072 512 1090 q 543 1045 525 1053 q 563 1040 552 1040 q 606 1067 593 1040 l 661 1183 q 663 1219 669 1200 q 639 1246 656 1238 z "},"Ê":{"ha":1131,"x_min":68,"x_max":1063,"o":"m 1063 912 q 1045 954 1063 937 q 1004 971 1028 971 l 364 971 q 155 884 241 971 q 68 675 68 798 l 68 296 q 155 87 68 174 q 364 0 241 0 l 1004 0 q 1045 18 1028 0 q 1063 59 1063 35 q 1045 101 1063 83 q 1004 119 1028 119 l 364 119 q 238 170 290 119 q 186 296 186 222 l 186 675 q 238 801 186 749 q 364 852 290 852 l 1004 852 q 1045 870 1028 852 q 1063 912 1063 888 m 340 545 q 298 528 316 545 q 281 486 281 510 q 298 444 281 461 q 340 427 316 427 l 814 427 q 856 444 838 427 q 873 486 873 461 q 856 528 873 510 q 814 545 838 545 l 340 545 m 715 1069 q 753 1088 739 1069 q 762 1124 765 1105 q 743 1155 758 1143 l 593 1261 q 538 1261 566 1281 l 389 1155 q 370 1124 373 1143 q 378 1088 366 1105 q 408 1069 389 1073 q 444 1078 428 1066 l 566 1164 l 687 1078 q 715 1069 700 1069 z "},"Ë":{"ha":1131,"x_min":68,"x_max":1063,"o":"m 1063 912 q 1045 954 1063 937 q 1004 971 1028 971 l 364 971 q 155 884 241 971 q 68 675 68 798 l 68 296 q 155 87 68 174 q 364 0 241 0 l 1004 0 q 1045 18 1028 0 q 1063 59 1063 35 q 1045 101 1063 83 q 1004 119 1028 119 l 364 119 q 238 170 290 119 q 186 296 186 222 l 186 675 q 238 801 186 749 q 364 852 290 852 l 1004 852 q 1045 870 1028 852 q 1063 912 1063 888 m 340 545 q 298 528 316 545 q 281 486 281 510 q 298 444 281 461 q 340 427 316 427 l 814 427 q 856 444 838 427 q 873 486 873 461 q 856 528 873 510 q 814 545 838 545 l 340 545 m 410 1191 q 428 1149 410 1166 q 469 1132 445 1132 q 511 1149 494 1132 q 529 1191 529 1166 l 529 1192 q 511 1234 529 1217 q 469 1251 494 1251 q 428 1234 445 1251 q 410 1192 410 1217 l 410 1191 m 661 1132 q 703 1149 686 1132 q 721 1191 721 1166 l 721 1192 q 703 1234 721 1217 q 661 1251 686 1251 q 620 1234 637 1251 q 602 1192 602 1217 l 602 1191 q 620 1149 602 1166 q 661 1132 637 1132 z "},"Ì":{"ha":299,"x_min":68,"x_max":231,"o":"m 172 0 q 214 18 196 0 q 231 59 231 35 l 231 912 q 214 954 231 937 q 172 971 196 971 q 130 954 147 971 q 113 912 113 937 l 113 59 q 130 18 113 35 q 172 0 147 0 m 175 1040 q 195 1045 185 1040 q 219 1072 213 1053 q 217 1108 226 1090 l 162 1223 q 135 1248 154 1241 q 99 1246 117 1255 q 75 1219 81 1238 q 77 1183 68 1200 l 132 1067 q 175 1040 144 1040 z "},"Í":{"ha":298,"x_min":68,"x_max":231,"o":"m 127 0 q 169 18 151 0 q 186 59 186 35 l 186 912 q 169 954 186 937 q 127 971 151 971 q 85 954 102 971 q 68 912 68 937 l 68 59 q 85 18 68 35 q 127 0 102 0 m 200 1246 q 163 1248 182 1255 q 136 1223 145 1241 l 81 1108 q 79 1072 73 1090 q 104 1045 86 1053 q 124 1040 113 1040 q 167 1067 154 1040 l 222 1183 q 224 1219 231 1200 q 200 1246 218 1238 z "},"Î":{"ha":534,"x_min":68,"x_max":466,"o":"m 267 0 q 309 18 291 0 q 326 59 326 35 l 326 912 q 309 954 326 937 q 267 971 291 971 q 225 954 242 971 q 208 912 208 937 l 208 59 q 225 18 208 35 q 267 0 242 0 m 416 1069 q 454 1088 440 1069 q 463 1124 466 1105 q 444 1155 459 1143 l 294 1261 q 239 1261 267 1281 l 90 1155 q 71 1124 74 1143 q 79 1088 67 1105 q 109 1069 90 1073 q 145 1078 129 1066 l 267 1164 l 388 1078 q 416 1069 401 1069 z "},"Ï":{"ha":446,"x_min":68,"x_max":378,"o":"m 222 0 q 264 18 247 0 q 282 59 282 35 l 282 912 q 264 954 282 937 q 222 971 247 971 q 181 954 198 971 q 163 912 163 937 l 163 59 q 181 18 163 35 q 222 0 198 0 m 68 1191 q 85 1149 68 1166 q 127 1132 102 1132 q 169 1149 151 1132 q 186 1191 186 1166 l 186 1192 q 169 1234 186 1217 q 127 1251 151 1251 q 85 1234 102 1251 q 68 1192 68 1217 l 68 1191 m 319 1132 q 361 1149 343 1132 q 378 1191 378 1166 l 378 1192 q 361 1234 378 1217 q 319 1251 343 1251 q 277 1234 294 1251 q 260 1192 260 1217 l 260 1191 q 277 1149 260 1166 q 319 1132 294 1132 z "},"Ð":{"ha":1248,"x_min":68,"x_max":1180,"o":"m 836 852 q 996 787 930 852 q 1061 628 1061 721 l 1061 343 q 996 184 1061 250 q 836 119 930 119 l 304 119 l 304 427 l 601 427 q 643 444 625 427 q 660 486 660 461 q 643 528 660 510 q 601 545 625 545 l 304 545 l 304 852 l 836 852 m 185 545 l 127 545 q 85 528 102 545 q 68 486 68 510 q 85 444 68 461 q 127 427 102 427 l 185 427 l 185 59 q 202 18 185 35 q 244 0 220 0 l 836 0 q 1080 100 979 0 q 1180 343 1180 201 l 1180 628 q 1080 871 1180 770 q 836 971 979 971 l 244 971 q 202 954 220 971 q 185 912 185 937 l 185 545 z "},"Ñ":{"ha":1119,"x_min":68,"x_max":1051,"o":"m 127 0 q 169 18 151 0 q 186 59 186 35 l 186 770 l 950 17 q 991 0 967 0 q 1015 5 1004 0 q 1051 59 1051 20 l 1051 912 q 1034 954 1051 937 q 991 971 1016 971 q 949 954 967 971 q 932 912 932 937 l 932 201 l 169 954 q 104 966 140 982 q 68 912 68 951 l 68 59 q 85 18 68 35 q 127 0 102 0 m 779 1243 q 755 1251 768 1251 q 716 1234 736 1251 q 662 1191 665 1192 q 572 1207 615 1172 q 437 1250 506 1261 q 328 1178 368 1239 q 321 1142 317 1162 q 341 1112 324 1123 q 376 1105 357 1101 q 406 1126 395 1109 q 452 1156 424 1152 q 513 1133 479 1160 q 629 1089 567 1089 q 702 1105 666 1089 q 787 1170 762 1131 q 798 1209 800 1190 q 779 1243 797 1231 z "},"Ò":{"ha":1131,"x_min":68,"x_max":1063,"o":"m 186 675 q 238 801 186 749 q 364 852 290 852 l 766 852 q 892 801 840 852 q 944 675 944 749 l 944 296 q 892 170 944 222 q 766 119 840 119 l 364 119 q 238 170 290 119 q 186 296 186 222 l 186 675 m 68 296 q 155 87 68 174 q 364 0 241 0 l 766 0 q 976 87 889 0 q 1063 296 1063 174 l 1063 675 q 976 884 1063 798 q 766 971 889 971 l 364 971 q 155 884 241 971 q 68 675 68 798 l 68 296 m 566 367 q 607 385 590 367 q 625 427 625 402 l 625 545 q 607 587 625 570 q 566 604 590 604 q 524 587 541 604 q 506 545 506 570 l 506 427 q 524 385 506 402 q 566 367 541 367 m 568 1040 q 589 1045 578 1040 q 612 1072 606 1053 q 610 1108 619 1090 l 555 1223 q 528 1248 547 1241 q 492 1246 510 1255 q 468 1219 475 1238 q 470 1183 462 1200 l 525 1067 q 568 1040 538 1040 z "},"Ó":{"ha":1131,"x_min":68,"x_max":1063,"o":"m 186 675 q 238 801 186 749 q 364 852 290 852 l 766 852 q 892 801 840 852 q 944 675 944 749 l 944 296 q 892 170 944 222 q 766 119 840 119 l 364 119 q 238 170 290 119 q 186 296 186 222 l 186 675 m 68 296 q 155 87 68 174 q 364 0 241 0 l 766 0 q 976 87 889 0 q 1063 296 1063 174 l 1063 675 q 976 884 1063 798 q 766 971 889 971 l 364 971 q 155 884 241 971 q 68 675 68 798 l 68 296 m 566 367 q 607 385 590 367 q 625 427 625 402 l 625 545 q 607 587 625 570 q 566 604 590 604 q 524 587 541 604 q 506 545 506 570 l 506 427 q 524 385 506 402 q 566 367 541 367 m 639 1246 q 602 1248 621 1255 q 575 1223 584 1241 l 520 1108 q 518 1072 512 1090 q 543 1045 525 1053 q 563 1040 552 1040 q 606 1067 593 1040 l 661 1183 q 663 1219 669 1200 q 639 1246 656 1238 z "},"Ô":{"ha":1131,"x_min":68,"x_max":1063,"o":"m 186 675 q 238 801 186 749 q 364 852 290 852 l 766 852 q 892 801 840 852 q 944 675 944 749 l 944 296 q 892 170 944 222 q 766 119 840 119 l 364 119 q 238 170 290 119 q 186 296 186 222 l 186 675 m 68 296 q 155 87 68 174 q 364 0 241 0 l 766 0 q 976 87 889 0 q 1063 296 1063 174 l 1063 675 q 976 884 1063 798 q 766 971 889 971 l 364 971 q 155 884 241 971 q 68 675 68 798 l 68 296 m 566 367 q 607 385 590 367 q 625 427 625 402 l 625 545 q 607 587 625 570 q 566 604 590 604 q 524 587 541 604 q 506 545 506 570 l 506 427 q 524 385 506 402 q 566 367 541 367 m 715 1069 q 753 1088 739 1069 q 762 1124 765 1105 q 743 1155 758 1143 l 593 1261 q 538 1261 566 1281 l 389 1155 q 370 1124 373 1143 q 378 1088 366 1105 q 408 1069 389 1073 q 444 1078 428 1066 l 566 1164 l 687 1078 q 715 1069 700 1069 z "},"Õ":{"ha":1131,"x_min":68,"x_max":1063,"o":"m 186 675 q 238 801 186 749 q 364 852 290 852 l 766 852 q 892 801 840 852 q 944 675 944 749 l 944 296 q 892 170 944 222 q 766 119 840 119 l 364 119 q 238 170 290 119 q 186 296 186 222 l 186 675 m 68 296 q 155 87 68 174 q 364 0 241 0 l 766 0 q 976 87 889 0 q 1063 296 1063 174 l 1063 675 q 976 884 1063 798 q 766 971 889 971 l 364 971 q 155 884 241 971 q 68 675 68 798 l 68 296 m 566 367 q 607 385 590 367 q 625 427 625 402 l 625 545 q 607 587 625 570 q 566 604 590 604 q 524 587 541 604 q 506 545 506 570 l 506 427 q 524 385 506 402 q 566 367 541 367 m 785 1243 q 761 1251 774 1251 q 722 1234 743 1251 q 668 1191 671 1192 q 578 1207 621 1172 q 444 1250 512 1261 q 334 1178 374 1239 q 327 1142 323 1162 q 347 1112 330 1123 q 382 1105 363 1101 q 412 1126 401 1109 q 458 1156 430 1152 q 519 1133 485 1160 q 635 1089 573 1089 q 708 1105 672 1089 q 793 1170 768 1131 q 804 1209 806 1190 q 785 1243 803 1231 z "},"Ö":{"ha":1131,"x_min":68,"x_max":1063,"o":"m 186 675 q 238 801 186 749 q 364 852 290 852 l 766 852 q 892 801 840 852 q 944 675 944 749 l 944 296 q 892 170 944 222 q 766 119 840 119 l 364 119 q 238 170 290 119 q 186 296 186 222 l 186 675 m 68 296 q 155 87 68 174 q 364 0 241 0 l 766 0 q 976 87 889 0 q 1063 296 1063 174 l 1063 675 q 976 884 1063 798 q 766 971 889 971 l 364 971 q 155 884 241 971 q 68 675 68 798 l 68 296 m 566 367 q 607 385 590 367 q 625 427 625 402 l 625 545 q 607 587 625 570 q 566 604 590 604 q 524 587 541 604 q 506 545 506 570 l 506 427 q 524 385 506 402 q 566 367 541 367 m 410 1191 q 428 1149 410 1166 q 469 1132 445 1132 q 511 1149 494 1132 q 529 1191 529 1166 l 529 1192 q 511 1234 529 1217 q 469 1251 494 1251 q 428 1234 445 1251 q 410 1192 410 1217 l 410 1191 m 661 1132 q 703 1149 686 1132 q 721 1191 721 1166 l 721 1192 q 703 1234 721 1217 q 661 1251 686 1251 q 620 1234 637 1251 q 602 1192 602 1217 l 602 1191 q 620 1149 602 1166 q 661 1132 637 1132 z "},"×":{"ha":631,"x_min":68,"x_max":563,"o":"m 546 714 q 504 731 528 731 q 462 714 479 731 l 315 568 l 169 714 q 127 731 151 731 q 85 714 102 731 q 68 672 68 696 q 85 630 68 648 l 232 484 l 85 337 q 68 295 68 319 q 85 254 68 271 q 127 236 102 236 q 169 254 151 236 l 315 400 l 462 254 q 504 236 479 236 q 546 254 528 236 q 563 295 563 271 q 546 337 563 319 l 399 484 l 546 630 q 563 672 563 648 q 546 714 563 696 z "},"Ø":{"ha":1162,"x_min":68,"x_max":1094,"o":"m 201 675 q 254 801 201 749 q 379 852 306 852 l 782 852 q 863 833 825 852 l 217 224 q 201 296 201 258 l 201 675 m 960 296 q 907 170 960 222 q 782 119 856 119 l 379 119 q 298 138 336 119 l 945 747 q 960 675 960 713 l 960 296 m 85 18 q 127 0 102 0 q 168 16 151 0 l 209 54 q 379 0 285 0 l 782 0 q 991 87 905 0 q 1078 296 1078 174 l 1078 675 q 1034 831 1078 760 l 1074 869 q 1093 910 1093 886 q 1077 953 1094 935 q 1036 971 1060 970 q 994 955 1011 972 l 953 917 q 782 971 876 971 l 379 971 q 170 884 257 971 q 83 675 83 798 l 83 296 q 127 140 83 212 l 87 102 q 68 61 69 85 q 85 18 68 37 z "},"Ù":{"ha":1131,"x_min":68,"x_max":1063,"o":"m 186 912 q 169 954 186 937 q 127 971 151 971 q 85 954 102 971 q 68 912 68 937 l 68 296 q 155 87 68 174 q 364 0 241 0 l 766 0 q 976 87 889 0 q 1063 296 1063 174 l 1063 912 q 1045 954 1063 937 q 1004 971 1028 971 q 962 954 979 971 q 944 912 944 937 l 944 296 q 892 170 944 222 q 766 119 840 119 l 364 119 q 238 170 290 119 q 186 296 186 222 l 186 912 m 568 1040 q 589 1045 578 1040 q 612 1072 606 1053 q 610 1108 619 1090 l 555 1223 q 528 1248 547 1241 q 492 1246 510 1255 q 468 1219 475 1238 q 470 1183 462 1200 l 525 1067 q 568 1040 538 1040 z "},"Ú":{"ha":1131,"x_min":68,"x_max":1063,"o":"m 186 912 q 169 954 186 937 q 127 971 151 971 q 85 954 102 971 q 68 912 68 937 l 68 296 q 155 87 68 174 q 364 0 241 0 l 766 0 q 976 87 889 0 q 1063 296 1063 174 l 1063 912 q 1045 954 1063 937 q 1004 971 1028 971 q 962 954 979 971 q 944 912 944 937 l 944 296 q 892 170 944 222 q 766 119 840 119 l 364 119 q 238 170 290 119 q 186 296 186 222 l 186 912 m 639 1246 q 602 1248 621 1255 q 575 1223 584 1241 l 520 1108 q 518 1072 512 1090 q 543 1045 525 1053 q 563 1040 552 1040 q 606 1067 593 1040 l 661 1183 q 663 1219 669 1200 q 639 1246 656 1238 z "},"Û":{"ha":1131,"x_min":68,"x_max":1063,"o":"m 186 912 q 169 954 186 937 q 127 971 151 971 q 85 954 102 971 q 68 912 68 937 l 68 296 q 155 87 68 174 q 364 0 241 0 l 766 0 q 976 87 889 0 q 1063 296 1063 174 l 1063 912 q 1045 954 1063 937 q 1004 971 1028 971 q 962 954 979 971 q 944 912 944 937 l 944 296 q 892 170 944 222 q 766 119 840 119 l 364 119 q 238 170 290 119 q 186 296 186 222 l 186 912 m 715 1069 q 753 1088 739 1069 q 762 1124 765 1105 q 743 1155 758 1143 l 593 1261 q 538 1261 566 1281 l 389 1155 q 370 1124 373 1143 q 378 1088 366 1105 q 408 1069 389 1073 q 444 1078 428 1066 l 566 1164 l 687 1078 q 715 1069 700 1069 z "},"Ü":{"ha":1131,"x_min":68,"x_max":1063,"o":"m 186 912 q 169 954 186 937 q 127 971 151 971 q 85 954 102 971 q 68 912 68 937 l 68 296 q 155 87 68 174 q 364 0 241 0 l 766 0 q 976 87 889 0 q 1063 296 1063 174 l 1063 912 q 1045 954 1063 937 q 1004 971 1028 971 q 962 954 979 971 q 944 912 944 937 l 944 296 q 892 170 944 222 q 766 119 840 119 l 364 119 q 238 170 290 119 q 186 296 186 222 l 186 912 m 410 1191 q 428 1149 410 1166 q 469 1132 445 1132 q 511 1149 494 1132 q 529 1191 529 1166 l 529 1192 q 511 1234 529 1217 q 469 1251 494 1251 q 428 1234 445 1251 q 410 1192 410 1217 l 410 1191 m 661 1132 q 703 1149 686 1132 q 721 1191 721 1166 l 721 1192 q 703 1234 721 1217 q 661 1251 686 1251 q 620 1234 637 1251 q 602 1192 602 1217 l 602 1191 q 620 1149 602 1166 q 661 1132 637 1132 z "},"Ý":{"ha":1142,"x_min":68,"x_max":1074,"o":"m 68 640 q 155 430 68 517 q 364 343 241 343 l 542 343 l 542 59 q 559 18 542 35 q 601 0 576 0 q 643 18 625 0 q 660 59 660 35 l 660 343 l 779 343 q 988 430 901 343 q 1074 640 1074 517 l 1074 912 q 1057 954 1074 937 q 1015 971 1040 971 q 973 954 991 971 q 956 912 956 937 l 956 640 q 904 514 956 566 q 779 462 852 462 l 364 462 q 238 514 290 462 q 186 640 186 566 l 186 912 q 169 954 186 937 q 127 971 151 971 q 85 954 102 971 q 68 912 68 937 l 68 640 m 644 1246 q 608 1248 626 1255 q 581 1223 589 1241 l 526 1108 q 524 1072 517 1090 q 548 1045 530 1053 q 568 1040 557 1040 q 611 1067 598 1040 l 666 1183 q 668 1219 675 1200 q 644 1246 662 1238 z "},"Þ":{"ha":996,"x_min":68,"x_max":928,"o":"m 186 710 l 734 710 q 788 688 766 710 q 810 635 810 666 l 810 336 q 788 283 810 305 q 734 261 766 261 l 186 261 l 186 710 m 928 635 q 871 772 928 715 q 734 829 814 829 l 186 829 l 186 912 q 169 954 186 937 q 127 971 151 971 q 85 954 102 971 q 68 912 68 937 l 68 59 q 85 18 68 35 q 127 0 102 0 q 169 18 151 0 q 186 59 186 35 l 186 142 l 734 142 q 871 199 814 142 q 928 336 928 256 l 928 635 z "},"ß":{"ha":1178,"x_min":68,"x_max":1110,"o":"m 873 0 q 1040 69 971 0 q 1110 237 1110 139 l 1110 308 q 996 511 1110 441 q 1051 663 1051 577 l 1051 734 q 981 902 1051 832 q 814 971 912 971 l 340 971 q 148 891 227 971 q 68 699 68 812 l 68 59 q 85 18 68 35 q 127 0 102 0 q 169 18 151 0 q 186 59 186 35 l 186 699 q 231 808 186 762 q 340 852 277 852 l 814 852 q 898 818 863 852 q 932 734 932 783 l 932 663 q 898 580 932 614 q 814 545 863 545 l 710 545 q 668 528 685 545 q 650 486 650 510 q 668 444 650 461 q 710 427 685 427 l 873 427 q 957 392 922 427 q 991 308 991 357 l 991 237 q 957 153 991 188 q 873 119 922 119 q 871 119 873 119 q 869 119 870 119 l 401 119 q 359 101 376 119 q 341 59 341 83 q 359 18 341 35 q 401 0 376 0 l 873 0 z "},"à":{"ha":1154,"x_min":68,"x_max":1086,"o":"m 1086 699 q 1006 891 1086 812 q 814 971 927 971 l 340 971 q 148 891 227 971 q 68 699 68 812 l 68 59 q 85 18 68 35 q 127 0 102 0 q 169 18 151 0 q 186 59 186 35 l 186 699 q 231 808 186 762 q 340 852 277 852 l 814 852 q 923 808 878 852 q 968 699 968 762 l 968 59 q 985 18 968 35 q 1027 0 1002 0 q 1069 18 1052 0 q 1086 59 1086 35 l 1086 699 m 814 332 q 856 349 838 332 q 873 391 873 366 q 856 433 873 416 q 814 450 838 450 l 340 450 q 298 433 316 450 q 281 391 281 416 q 298 349 281 366 q 340 332 316 332 l 814 332 m 580 1040 q 600 1045 591 1040 q 625 1072 618 1053 q 623 1108 631 1090 l 567 1223 q 541 1248 559 1241 q 504 1246 522 1255 q 479 1219 486 1238 q 481 1183 473 1200 l 537 1067 q 580 1040 550 1040 z "},"á":{"ha":1154,"x_min":68,"x_max":1086,"o":"m 1086 699 q 1006 891 1086 812 q 814 971 927 971 l 340 971 q 148 891 227 971 q 68 699 68 812 l 68 59 q 85 18 68 35 q 127 0 102 0 q 169 18 151 0 q 186 59 186 35 l 186 699 q 231 808 186 762 q 340 852 277 852 l 814 852 q 923 808 878 852 q 968 699 968 762 l 968 59 q 985 18 968 35 q 1027 0 1002 0 q 1069 18 1052 0 q 1086 59 1086 35 l 1086 699 m 814 332 q 856 349 838 332 q 873 391 873 366 q 856 433 873 416 q 814 450 838 450 l 340 450 q 298 433 316 450 q 281 391 281 416 q 298 349 281 366 q 340 332 316 332 l 814 332 m 650 1246 q 614 1248 633 1255 q 587 1223 595 1241 l 532 1108 q 530 1072 524 1090 q 554 1045 536 1053 q 574 1040 564 1040 q 617 1067 604 1040 l 673 1183 q 674 1219 681 1200 q 650 1246 668 1238 z "},"â":{"ha":1154,"x_min":68,"x_max":1086,"o":"m 1086 699 q 1006 891 1086 812 q 814 971 927 971 l 340 971 q 148 891 227 971 q 68 699 68 812 l 68 59 q 85 18 68 35 q 127 0 102 0 q 169 18 151 0 q 186 59 186 35 l 186 699 q 231 808 186 762 q 340 852 277 852 l 814 852 q 923 808 878 852 q 968 699 968 762 l 968 59 q 985 18 968 35 q 1027 0 1002 0 q 1069 18 1052 0 q 1086 59 1086 35 l 1086 699 m 814 332 q 856 349 838 332 q 873 391 873 366 q 856 433 873 416 q 814 450 838 450 l 340 450 q 298 433 316 450 q 281 391 281 416 q 298 349 281 366 q 340 332 316 332 l 814 332 m 726 1069 q 765 1088 751 1069 q 773 1124 777 1105 q 754 1155 770 1143 l 605 1261 q 549 1261 577 1281 l 400 1155 q 381 1124 385 1143 q 389 1088 378 1105 q 420 1069 401 1073 q 456 1078 439 1066 l 577 1164 l 699 1078 q 726 1069 711 1069 z "},"ã":{"ha":1154,"x_min":68,"x_max":1086,"o":"m 1086 699 q 1006 891 1086 812 q 814 971 927 971 l 340 971 q 148 891 227 971 q 68 699 68 812 l 68 59 q 85 18 68 35 q 127 0 102 0 q 169 18 151 0 q 186 59 186 35 l 186 699 q 231 808 186 762 q 340 852 277 852 l 814 852 q 923 808 878 852 q 968 699 968 762 l 968 59 q 985 18 968 35 q 1027 0 1002 0 q 1069 18 1052 0 q 1086 59 1086 35 l 1086 699 m 814 332 q 856 349 838 332 q 873 391 873 366 q 856 433 873 416 q 814 450 838 450 l 340 450 q 298 433 316 450 q 281 391 281 416 q 298 349 281 366 q 340 332 316 332 l 814 332 m 798 1243 q 772 1251 786 1251 q 734 1234 754 1251 q 680 1191 683 1192 q 590 1207 633 1172 q 456 1250 524 1261 q 345 1178 386 1239 q 338 1142 334 1162 q 359 1112 342 1123 q 395 1105 375 1101 q 425 1126 414 1109 q 470 1156 442 1152 q 530 1133 497 1160 q 648 1089 585 1089 q 720 1105 684 1089 q 806 1170 779 1131 q 817 1209 818 1190 q 798 1243 815 1231 z "},"ä":{"ha":1154,"x_min":68,"x_max":1086,"o":"m 1086 699 q 1006 891 1086 812 q 814 971 927 971 l 340 971 q 148 891 227 971 q 68 699 68 812 l 68 59 q 85 18 68 35 q 127 0 102 0 q 169 18 151 0 q 186 59 186 35 l 186 699 q 231 808 186 762 q 340 852 277 852 l 814 852 q 923 808 878 852 q 968 699 968 762 l 968 59 q 985 18 968 35 q 1027 0 1002 0 q 1069 18 1052 0 q 1086 59 1086 35 l 1086 699 m 814 332 q 856 349 838 332 q 873 391 873 366 q 856 433 873 416 q 814 450 838 450 l 340 450 q 298 433 316 450 q 281 391 281 416 q 298 349 281 366 q 340 332 316 332 l 814 332 m 422 1191 q 439 1149 422 1166 q 481 1132 456 1132 q 523 1149 506 1132 q 541 1191 541 1166 l 541 1192 q 523 1234 541 1217 q 481 1251 506 1251 q 439 1234 456 1251 q 422 1192 422 1217 l 422 1191 m 673 1132 q 715 1149 698 1132 q 732 1191 732 1166 l 732 1192 q 715 1234 732 1217 q 673 1251 698 1251 q 631 1234 648 1251 q 614 1192 614 1217 l 614 1191 q 631 1149 614 1166 q 673 1132 648 1132 z "},"å":{"ha":1154,"x_min":68,"x_max":1086,"o":"m 1086 699 q 1006 891 1086 812 q 814 971 927 971 l 340 971 q 148 891 227 971 q 68 699 68 812 l 68 59 q 85 18 68 35 q 127 0 102 0 q 169 18 151 0 q 186 59 186 35 l 186 699 q 231 808 186 762 q 340 852 277 852 l 814 852 q 923 808 878 852 q 968 699 968 762 l 968 59 q 985 18 968 35 q 1027 0 1002 0 q 1069 18 1052 0 q 1086 59 1086 35 l 1086 699 m 814 332 q 856 349 838 332 q 873 391 873 366 q 856 433 873 416 q 814 450 838 450 l 340 450 q 298 433 316 450 q 281 391 281 416 q 298 349 281 366 q 340 332 316 332 l 814 332 m 577 1207 q 612 1193 597 1207 q 627 1158 627 1178 q 612 1122 627 1137 q 577 1108 597 1108 q 542 1122 557 1108 q 528 1158 528 1137 q 542 1193 528 1178 q 577 1207 557 1207 m 577 1037 q 663 1072 627 1037 q 698 1158 698 1107 q 663 1243 698 1208 q 577 1278 627 1278 q 492 1243 527 1278 q 456 1158 456 1208 q 492 1072 456 1107 q 577 1037 527 1037 z "},"æ":{"ha":2035,"x_min":68,"x_max":1967,"o":"m 186 450 l 186 699 q 231 808 186 762 q 340 852 277 852 l 814 852 q 923 808 878 852 q 968 699 968 762 l 968 450 l 186 450 m 340 971 q 148 891 227 971 q 68 699 68 812 l 68 59 q 85 18 68 35 q 127 0 102 0 q 169 18 151 0 q 186 59 186 35 l 186 332 l 968 332 l 968 59 q 985 18 968 35 q 1027 0 1002 0 q 1069 18 1052 0 q 1086 59 1086 35 l 1086 62 q 1267 0 1166 0 l 1907 0 q 1949 18 1931 0 q 1967 59 1967 35 q 1949 101 1967 83 q 1907 119 1931 119 l 1267 119 q 1142 170 1194 119 q 1090 296 1090 222 l 1090 427 l 1765 427 q 1807 444 1790 427 q 1824 486 1824 461 q 1807 528 1824 510 q 1765 545 1790 545 l 1090 545 l 1090 675 q 1142 801 1090 749 q 1267 852 1194 852 l 1907 852 q 1949 870 1931 852 q 1967 912 1967 888 q 1949 954 1967 937 q 1907 971 1931 971 l 1267 971 q 1058 884 1145 971 q 1035 859 1046 872 q 1006 891 1022 876 q 814 971 927 971 l 340 971 z "},"ç":{"ha":1131,"x_min":68,"x_max":1063,"o":"m 1004 854 q 1045 871 1028 854 q 1063 913 1063 888 q 1045 955 1063 937 q 1004 972 1028 972 l 364 972 q 155 885 241 972 q 68 676 68 798 l 68 297 q 155 87 68 174 q 364 1 241 1 l 506 1 l 506 -90 q 524 -131 506 -114 q 566 -149 541 -149 q 607 -131 590 -149 q 625 -90 625 -114 l 625 1 l 1004 1 q 1045 18 1028 1 q 1063 60 1063 35 q 1045 102 1063 85 q 1004 119 1028 119 l 364 119 q 238 172 290 119 q 186 297 186 223 l 186 676 q 238 802 186 749 q 364 854 290 854 l 1004 854 z "},"è":{"ha":1131,"x_min":68,"x_max":1063,"o":"m 1063 912 q 1045 954 1063 937 q 1004 971 1028 971 l 364 971 q 155 884 241 971 q 68 675 68 798 l 68 296 q 155 87 68 174 q 364 0 241 0 l 1004 0 q 1045 18 1028 0 q 1063 59 1063 35 q 1045 101 1063 83 q 1004 119 1028 119 l 364 119 q 238 170 290 119 q 186 296 186 222 l 186 675 q 238 801 186 749 q 364 852 290 852 l 1004 852 q 1045 870 1028 852 q 1063 912 1063 888 m 340 545 q 298 528 316 545 q 281 486 281 510 q 298 444 281 461 q 340 427 316 427 l 814 427 q 856 444 838 427 q 873 486 873 461 q 856 528 873 510 q 814 545 838 545 l 340 545 m 568 1040 q 588 1045 578 1040 q 612 1072 606 1053 q 610 1108 619 1090 l 555 1223 q 528 1248 547 1241 q 492 1246 510 1255 q 468 1219 475 1238 q 470 1183 461 1200 l 525 1067 q 568 1040 538 1040 z "},"é":{"ha":1131,"x_min":68,"x_max":1063,"o":"m 1063 912 q 1045 954 1063 937 q 1004 971 1028 971 l 364 971 q 155 884 241 971 q 68 675 68 798 l 68 296 q 155 87 68 174 q 364 0 241 0 l 1004 0 q 1045 18 1028 0 q 1063 59 1063 35 q 1045 101 1063 83 q 1004 119 1028 119 l 364 119 q 238 170 290 119 q 186 296 186 222 l 186 675 q 238 801 186 749 q 364 852 290 852 l 1004 852 q 1045 870 1028 852 q 1063 912 1063 888 m 340 545 q 298 528 316 545 q 281 486 281 510 q 298 444 281 461 q 340 427 316 427 l 814 427 q 856 444 838 427 q 873 486 873 461 q 856 528 873 510 q 814 545 838 545 l 340 545 m 638 1246 q 602 1248 621 1255 q 575 1223 584 1241 l 520 1108 q 518 1072 511 1090 q 543 1045 524 1053 q 563 1040 552 1040 q 606 1067 593 1040 l 661 1183 q 663 1219 669 1200 q 638 1246 656 1238 z "},"ê":{"ha":1131,"x_min":68,"x_max":1063,"o":"m 1063 912 q 1045 954 1063 937 q 1004 971 1028 971 l 364 971 q 155 884 241 971 q 68 675 68 798 l 68 296 q 155 87 68 174 q 364 0 241 0 l 1004 0 q 1045 18 1028 0 q 1063 59 1063 35 q 1045 101 1063 83 q 1004 119 1028 119 l 364 119 q 238 170 290 119 q 186 296 186 222 l 186 675 q 238 801 186 749 q 364 852 290 852 l 1004 852 q 1045 870 1028 852 q 1063 912 1063 888 m 340 545 q 298 528 316 545 q 281 486 281 510 q 298 444 281 461 q 340 427 316 427 l 814 427 q 856 444 838 427 q 873 486 873 461 q 856 528 873 510 q 814 545 838 545 l 340 545 m 715 1069 q 753 1088 739 1069 q 761 1124 764 1105 q 742 1155 758 1143 l 593 1261 q 538 1261 566 1281 l 389 1155 q 370 1124 372 1143 q 378 1088 366 1105 q 408 1069 389 1073 q 444 1078 428 1066 l 566 1164 l 687 1078 q 715 1069 699 1069 z "},"ë":{"ha":1131,"x_min":68,"x_max":1063,"o":"m 1063 912 q 1045 954 1063 937 q 1004 971 1028 971 l 364 971 q 155 884 241 971 q 68 675 68 798 l 68 296 q 155 87 68 174 q 364 0 241 0 l 1004 0 q 1045 18 1028 0 q 1063 59 1063 35 q 1045 101 1063 83 q 1004 119 1028 119 l 364 119 q 238 170 290 119 q 186 296 186 222 l 186 675 q 238 801 186 749 q 364 852 290 852 l 1004 852 q 1045 870 1028 852 q 1063 912 1063 888 m 340 545 q 298 528 316 545 q 281 486 281 510 q 298 444 281 461 q 340 427 316 427 l 814 427 q 856 444 838 427 q 873 486 873 461 q 856 528 873 510 q 814 545 838 545 l 340 545 m 410 1191 q 427 1149 410 1166 q 469 1132 445 1132 q 511 1149 494 1132 q 528 1191 528 1166 l 528 1192 q 511 1234 528 1217 q 469 1251 494 1251 q 427 1234 445 1251 q 410 1192 410 1217 l 410 1191 m 661 1132 q 703 1149 686 1132 q 720 1191 720 1166 l 720 1192 q 703 1234 720 1217 q 661 1251 686 1251 q 619 1234 637 1251 q 602 1192 602 1217 l 602 1191 q 619 1149 602 1166 q 661 1132 637 1132 z "},"ì":{"ha":299,"x_min":68,"x_max":231,"o":"m 172 0 q 214 18 196 0 q 231 59 231 35 l 231 912 q 214 954 231 937 q 172 971 196 971 q 130 954 147 971 q 113 912 113 937 l 113 59 q 130 18 113 35 q 172 0 147 0 m 174 1040 q 195 1045 185 1040 q 219 1072 212 1053 q 217 1108 226 1090 l 162 1223 q 135 1248 153 1241 q 99 1246 117 1255 q 75 1219 81 1238 q 77 1183 68 1200 l 132 1067 q 174 1040 144 1040 z "},"í":{"ha":298,"x_min":68,"x_max":231,"o":"m 127 0 q 169 18 151 0 q 186 59 186 35 l 186 912 q 169 954 186 937 q 127 971 151 971 q 85 954 102 971 q 68 912 68 937 l 68 59 q 85 18 68 35 q 127 0 102 0 m 200 1246 q 164 1248 182 1255 q 137 1223 145 1241 l 82 1108 q 80 1072 73 1090 q 104 1045 86 1053 q 124 1040 114 1040 q 168 1067 155 1040 l 222 1183 q 224 1219 231 1200 q 200 1246 218 1238 z "},"î":{"ha":534,"x_min":68,"x_max":466,"o":"m 267 0 q 309 18 291 0 q 326 59 326 35 l 326 912 q 309 954 326 937 q 267 971 291 971 q 225 954 242 971 q 208 912 208 937 l 208 59 q 225 18 208 35 q 267 0 242 0 m 416 1069 q 454 1088 440 1069 q 463 1124 466 1105 q 444 1155 460 1143 l 294 1261 q 239 1261 267 1281 l 90 1155 q 71 1124 74 1143 q 79 1088 68 1105 q 110 1069 90 1073 q 145 1078 129 1066 l 267 1164 l 389 1078 q 416 1069 401 1069 z "},"ï":{"ha":446,"x_min":68,"x_max":378,"o":"m 222 0 q 264 18 247 0 q 282 59 282 35 l 282 912 q 264 954 282 937 q 222 971 247 971 q 181 954 198 971 q 163 912 163 937 l 163 59 q 181 18 163 35 q 222 0 198 0 m 68 1191 q 85 1149 68 1166 q 127 1132 102 1132 q 169 1149 151 1132 q 186 1191 186 1166 l 186 1192 q 169 1234 186 1217 q 127 1251 151 1251 q 85 1234 102 1251 q 68 1192 68 1217 l 68 1191 m 319 1132 q 361 1149 343 1132 q 378 1191 378 1166 l 378 1192 q 361 1234 378 1217 q 319 1251 343 1251 q 277 1234 294 1251 q 259 1192 259 1217 l 259 1191 q 277 1149 259 1166 q 319 1132 294 1132 z "},"ð":{"ha":1248,"x_min":68,"x_max":1180,"o":"m 836 852 q 996 787 930 852 q 1061 628 1061 721 l 1061 343 q 996 184 1061 250 q 836 119 930 119 l 304 119 l 304 427 l 601 427 q 643 444 625 427 q 660 486 660 461 q 643 528 660 510 q 601 545 625 545 l 304 545 l 304 852 l 836 852 m 185 545 l 127 545 q 85 528 102 545 q 68 486 68 510 q 85 444 68 461 q 127 427 102 427 l 185 427 l 185 59 q 202 18 185 35 q 244 0 220 0 l 836 0 q 1080 100 979 0 q 1180 343 1180 201 l 1180 628 q 1080 871 1180 770 q 836 971 979 971 l 244 971 q 202 954 220 971 q 185 912 185 937 l 185 545 z "},"ñ":{"ha":1119,"x_min":68,"x_max":1051,"o":"m 127 0 q 169 18 151 0 q 186 59 186 35 l 186 770 l 950 17 q 991 0 967 0 q 1015 5 1004 0 q 1051 59 1051 20 l 1051 912 q 1034 954 1051 937 q 991 971 1016 971 q 949 954 967 971 q 932 912 932 937 l 932 201 l 169 954 q 104 966 140 982 q 68 912 68 951 l 68 59 q 85 18 68 35 q 127 0 102 0 m 779 1243 q 755 1251 768 1251 q 717 1234 736 1251 q 663 1191 665 1192 q 572 1207 616 1172 q 438 1250 507 1261 q 328 1178 368 1239 q 321 1142 317 1162 q 341 1112 325 1123 q 377 1105 357 1101 q 407 1126 396 1109 q 452 1156 425 1152 q 513 1133 479 1160 q 629 1089 567 1089 q 702 1105 666 1089 q 787 1170 762 1131 q 799 1209 800 1190 q 779 1243 798 1231 z "},"ò":{"ha":1131,"x_min":68,"x_max":1063,"o":"m 186 675 q 238 801 186 749 q 364 852 290 852 l 766 852 q 892 801 840 852 q 944 675 944 749 l 944 296 q 892 170 944 222 q 766 119 840 119 l 364 119 q 238 170 290 119 q 186 296 186 222 l 186 675 m 68 296 q 155 87 68 174 q 364 0 241 0 l 766 0 q 976 87 889 0 q 1063 296 1063 174 l 1063 675 q 976 884 1063 798 q 766 971 889 971 l 364 971 q 155 884 241 971 q 68 675 68 798 l 68 296 m 566 367 q 607 385 590 367 q 625 427 625 402 l 625 545 q 607 587 625 570 q 566 604 590 604 q 524 587 541 604 q 506 545 506 570 l 506 427 q 524 385 506 402 q 566 367 541 367 m 568 1040 q 588 1045 578 1040 q 612 1072 606 1053 q 610 1108 619 1090 l 555 1223 q 528 1248 547 1241 q 492 1246 510 1255 q 468 1219 475 1238 q 470 1183 461 1200 l 525 1067 q 568 1040 538 1040 z "},"ó":{"ha":1131,"x_min":68,"x_max":1063,"o":"m 186 675 q 238 801 186 749 q 364 852 290 852 l 766 852 q 892 801 840 852 q 944 675 944 749 l 944 296 q 892 170 944 222 q 766 119 840 119 l 364 119 q 238 170 290 119 q 186 296 186 222 l 186 675 m 68 296 q 155 87 68 174 q 364 0 241 0 l 766 0 q 976 87 889 0 q 1063 296 1063 174 l 1063 675 q 976 884 1063 798 q 766 971 889 971 l 364 971 q 155 884 241 971 q 68 675 68 798 l 68 296 m 566 367 q 607 385 590 367 q 625 427 625 402 l 625 545 q 607 587 625 570 q 566 604 590 604 q 524 587 541 604 q 506 545 506 570 l 506 427 q 524 385 506 402 q 566 367 541 367 m 638 1246 q 602 1248 621 1255 q 575 1223 584 1241 l 520 1108 q 518 1072 511 1090 q 543 1045 524 1053 q 563 1040 552 1040 q 606 1067 593 1040 l 661 1183 q 663 1219 669 1200 q 638 1246 656 1238 z "},"ô":{"ha":1131,"x_min":68,"x_max":1063,"o":"m 186 675 q 238 801 186 749 q 364 852 290 852 l 766 852 q 892 801 840 852 q 944 675 944 749 l 944 296 q 892 170 944 222 q 766 119 840 119 l 364 119 q 238 170 290 119 q 186 296 186 222 l 186 675 m 68 296 q 155 87 68 174 q 364 0 241 0 l 766 0 q 976 87 889 0 q 1063 296 1063 174 l 1063 675 q 976 884 1063 798 q 766 971 889 971 l 364 971 q 155 884 241 971 q 68 675 68 798 l 68 296 m 566 367 q 607 385 590 367 q 625 427 625 402 l 625 545 q 607 587 625 570 q 566 604 590 604 q 524 587 541 604 q 506 545 506 570 l 506 427 q 524 385 506 402 q 566 367 541 367 m 715 1069 q 753 1088 739 1069 q 761 1124 764 1105 q 742 1155 758 1143 l 593 1261 q 538 1261 566 1281 l 389 1155 q 370 1124 372 1143 q 378 1088 366 1105 q 408 1069 389 1073 q 444 1078 428 1066 l 566 1164 l 687 1078 q 715 1069 699 1069 z "},"õ":{"ha":1131,"x_min":68,"x_max":1063,"o":"m 186 675 q 238 801 186 749 q 364 852 290 852 l 766 852 q 892 801 840 852 q 944 675 944 749 l 944 296 q 892 170 944 222 q 766 119 840 119 l 364 119 q 238 170 290 119 q 186 296 186 222 l 186 675 m 68 296 q 155 87 68 174 q 364 0 241 0 l 766 0 q 976 87 889 0 q 1063 296 1063 174 l 1063 675 q 976 884 1063 798 q 766 971 889 971 l 364 971 q 155 884 241 971 q 68 675 68 798 l 68 296 m 566 367 q 607 385 590 367 q 625 427 625 402 l 625 545 q 607 587 625 570 q 566 604 590 604 q 524 587 541 604 q 506 545 506 570 l 506 427 q 524 385 506 402 q 566 367 541 367 m 785 1243 q 761 1251 774 1251 q 722 1234 743 1251 q 668 1191 671 1192 q 578 1207 622 1172 q 444 1250 512 1261 q 334 1178 374 1239 q 327 1142 323 1162 q 347 1112 331 1123 q 382 1105 363 1101 q 413 1126 402 1109 q 458 1156 430 1152 q 519 1133 485 1160 q 635 1089 573 1089 q 708 1105 672 1089 q 793 1170 768 1131 q 805 1209 806 1190 q 785 1243 804 1231 z "},"ö":{"ha":1131,"x_min":68,"x_max":1063,"o":"m 186 675 q 238 801 186 749 q 364 852 290 852 l 766 852 q 892 801 840 852 q 944 675 944 749 l 944 296 q 892 170 944 222 q 766 119 840 119 l 364 119 q 238 170 290 119 q 186 296 186 222 l 186 675 m 68 296 q 155 87 68 174 q 364 0 241 0 l 766 0 q 976 87 889 0 q 1063 296 1063 174 l 1063 675 q 976 884 1063 798 q 766 971 889 971 l 364 971 q 155 884 241 971 q 68 675 68 798 l 68 296 m 566 367 q 607 385 590 367 q 625 427 625 402 l 625 545 q 607 587 625 570 q 566 604 590 604 q 524 587 541 604 q 506 545 506 570 l 506 427 q 524 385 506 402 q 566 367 541 367 m 410 1191 q 427 1149 410 1166 q 469 1132 445 1132 q 511 1149 494 1132 q 528 1191 528 1166 l 528 1192 q 511 1234 528 1217 q 469 1251 494 1251 q 427 1234 445 1251 q 410 1192 410 1217 l 410 1191 m 661 1132 q 703 1149 686 1132 q 720 1191 720 1166 l 720 1192 q 703 1234 720 1217 q 661 1251 686 1251 q 619 1234 637 1251 q 602 1192 602 1217 l 602 1191 q 619 1149 602 1166 q 661 1132 637 1132 z "},"÷":{"ha":787,"x_min":68,"x_max":720,"o":"m 127 545 q 85 528 102 545 q 68 486 68 510 q 85 444 68 461 q 127 426 102 426 l 660 426 q 702 444 684 426 q 720 486 720 461 q 702 528 720 510 q 660 545 684 545 l 127 545 m 453 656 q 435 698 453 680 q 393 715 418 715 q 352 698 369 715 q 334 656 334 680 l 334 655 q 352 613 334 630 q 393 595 369 595 q 435 613 418 595 q 453 655 453 630 l 453 656 m 334 315 q 352 273 334 290 q 393 256 369 256 q 435 273 418 256 q 453 315 453 290 l 453 316 q 435 358 453 340 q 393 375 418 375 q 352 358 369 375 q 334 316 334 340 l 334 315 z "},"ø":{"ha":1162,"x_min":68,"x_max":1094,"o":"m 201 675 q 254 801 201 749 q 379 852 306 852 l 782 852 q 863 833 825 852 l 217 224 q 201 296 201 258 l 201 675 m 960 296 q 907 170 960 222 q 782 119 856 119 l 379 119 q 298 138 336 119 l 945 747 q 960 675 960 713 l 960 296 m 85 18 q 127 0 102 0 q 168 16 151 0 l 209 54 q 379 0 285 0 l 782 0 q 991 87 905 0 q 1078 296 1078 174 l 1078 675 q 1034 831 1078 760 l 1074 869 q 1093 910 1093 886 q 1077 953 1094 935 q 1036 971 1060 970 q 994 955 1011 972 l 953 917 q 782 971 876 971 l 379 971 q 170 884 257 971 q 83 675 83 798 l 83 296 q 127 140 83 212 l 87 102 q 68 61 69 85 q 85 18 68 37 z "},"ù":{"ha":1131,"x_min":68,"x_max":1063,"o":"m 186 912 q 169 954 186 937 q 127 971 151 971 q 85 954 102 971 q 68 912 68 937 l 68 296 q 155 87 68 174 q 364 0 241 0 l 766 0 q 976 87 889 0 q 1063 296 1063 174 l 1063 912 q 1045 954 1063 937 q 1004 971 1028 971 q 962 954 979 971 q 944 912 944 937 l 944 296 q 892 170 944 222 q 766 119 840 119 l 364 119 q 238 170 290 119 q 186 296 186 222 l 186 912 m 568 1040 q 588 1045 578 1040 q 612 1072 606 1053 q 610 1108 619 1090 l 555 1223 q 528 1248 547 1241 q 492 1246 510 1255 q 468 1219 475 1238 q 470 1183 461 1200 l 525 1067 q 568 1040 538 1040 z "},"ú":{"ha":1131,"x_min":68,"x_max":1063,"o":"m 186 912 q 169 954 186 937 q 127 971 151 971 q 85 954 102 971 q 68 912 68 937 l 68 296 q 155 87 68 174 q 364 0 241 0 l 766 0 q 976 87 889 0 q 1063 296 1063 174 l 1063 912 q 1045 954 1063 937 q 1004 971 1028 971 q 962 954 979 971 q 944 912 944 937 l 944 296 q 892 170 944 222 q 766 119 840 119 l 364 119 q 238 170 290 119 q 186 296 186 222 l 186 912 m 638 1246 q 602 1248 621 1255 q 575 1223 584 1241 l 520 1108 q 518 1072 511 1090 q 543 1045 524 1053 q 563 1040 552 1040 q 606 1067 593 1040 l 661 1183 q 663 1219 669 1200 q 638 1246 656 1238 z "},"û":{"ha":1131,"x_min":68,"x_max":1063,"o":"m 186 912 q 169 954 186 937 q 127 971 151 971 q 85 954 102 971 q 68 912 68 937 l 68 296 q 155 87 68 174 q 364 0 241 0 l 766 0 q 976 87 889 0 q 1063 296 1063 174 l 1063 912 q 1045 954 1063 937 q 1004 971 1028 971 q 962 954 979 971 q 944 912 944 937 l 944 296 q 892 170 944 222 q 766 119 840 119 l 364 119 q 238 170 290 119 q 186 296 186 222 l 186 912 m 715 1069 q 753 1088 739 1069 q 761 1124 764 1105 q 742 1155 758 1143 l 593 1261 q 538 1261 566 1281 l 389 1155 q 370 1124 372 1143 q 378 1088 366 1105 q 408 1069 389 1073 q 444 1078 428 1066 l 566 1164 l 687 1078 q 715 1069 699 1069 z "},"ü":{"ha":1131,"x_min":68,"x_max":1063,"o":"m 186 912 q 169 954 186 937 q 127 971 151 971 q 85 954 102 971 q 68 912 68 937 l 68 296 q 155 87 68 174 q 364 0 241 0 l 766 0 q 976 87 889 0 q 1063 296 1063 174 l 1063 912 q 1045 954 1063 937 q 1004 971 1028 971 q 962 954 979 971 q 944 912 944 937 l 944 296 q 892 170 944 222 q 766 119 840 119 l 364 119 q 238 170 290 119 q 186 296 186 222 l 186 912 m 410 1191 q 427 1149 410 1166 q 469 1132 445 1132 q 511 1149 494 1132 q 528 1191 528 1166 l 528 1192 q 511 1234 528 1217 q 469 1251 494 1251 q 427 1234 445 1251 q 410 1192 410 1217 l 410 1191 m 661 1132 q 703 1149 686 1132 q 720 1191 720 1166 l 720 1192 q 703 1234 720 1217 q 661 1251 686 1251 q 619 1234 637 1251 q 602 1192 602 1217 l 602 1191 q 619 1149 602 1166 q 661 1132 637 1132 z "},"ý":{"ha":1142,"x_min":68,"x_max":1074,"o":"m 68 640 q 155 430 68 517 q 364 343 241 343 l 542 343 l 542 59 q 559 18 542 35 q 601 0 576 0 q 643 18 625 0 q 660 59 660 35 l 660 343 l 779 343 q 988 430 901 343 q 1074 640 1074 517 l 1074 912 q 1057 954 1074 937 q 1015 971 1040 971 q 973 954 991 971 q 956 912 956 937 l 956 640 q 904 514 956 566 q 779 462 852 462 l 364 462 q 238 514 290 462 q 186 640 186 566 l 186 912 q 169 954 186 937 q 127 971 151 971 q 85 954 102 971 q 68 912 68 937 l 68 640 m 644 1246 q 608 1248 627 1255 q 581 1223 589 1241 l 526 1108 q 524 1072 517 1090 q 548 1045 530 1053 q 568 1040 558 1040 q 611 1067 598 1040 l 667 1183 q 669 1219 675 1200 q 644 1246 662 1238 z "},"þ":{"ha":996,"x_min":68,"x_max":928,"o":"m 186 710 l 734 710 q 788 688 766 710 q 810 635 810 666 l 810 336 q 788 283 810 305 q 734 261 766 261 l 186 261 l 186 710 m 928 635 q 871 772 928 715 q 734 829 814 829 l 186 829 l 186 912 q 169 954 186 937 q 127 971 151 971 q 85 954 102 971 q 68 912 68 937 l 68 59 q 85 18 68 35 q 127 0 102 0 q 169 18 151 0 q 186 59 186 35 l 186 142 l 734 142 q 871 199 814 142 q 928 336 928 256 l 928 635 z "},"ÿ":{"ha":1142,"x_min":68,"x_max":1074,"o":"m 68 640 q 155 430 68 517 q 364 343 241 343 l 542 343 l 542 59 q 559 18 542 35 q 601 0 576 0 q 643 18 625 0 q 660 59 660 35 l 660 343 l 779 343 q 988 430 901 343 q 1074 640 1074 517 l 1074 912 q 1057 954 1074 937 q 1015 971 1040 971 q 973 954 991 971 q 956 912 956 937 l 956 640 q 904 514 956 566 q 779 462 852 462 l 364 462 q 238 514 290 462 q 186 640 186 566 l 186 912 q 169 954 186 937 q 127 971 151 971 q 85 954 102 971 q 68 912 68 937 l 68 640 m 416 1116 q 433 1075 416 1092 q 475 1057 450 1057 q 517 1075 499 1057 q 534 1116 534 1092 l 534 1118 q 517 1160 534 1142 q 475 1177 499 1177 q 433 1160 450 1177 q 416 1118 416 1142 l 416 1116 m 667 1057 q 709 1075 691 1057 q 726 1116 726 1092 l 726 1118 q 709 1160 726 1142 q 667 1177 691 1177 q 625 1160 642 1177 q 608 1118 608 1142 l 608 1116 q 625 1075 608 1092 q 667 1057 642 1057 z "},"ı":{"ha":254,"x_min":68,"x_max":186,"o":"m 127 0 q 169 18 151 0 q 186 59 186 35 l 186 912 q 169 954 186 937 q 127 971 151 971 q 85 954 102 971 q 68 912 68 937 l 68 59 q 85 18 68 35 q 127 0 102 0 z "},"ˆ":{"ha":534,"x_min":68,"x_max":467,"o":"m 416 791 q 455 810 441 791 q 463 846 467 827 q 444 877 460 865 l 295 983 q 239 983 267 1003 l 90 877 q 71 846 75 865 q 79 810 68 827 q 110 791 91 795 q 146 800 130 788 l 267 886 l 389 800 q 416 791 401 791 z "},"˚":{"ha":377,"x_min":68,"x_max":309,"o":"m 189 929 q 224 915 209 929 q 238 880 238 900 q 224 844 238 859 q 189 830 209 830 q 153 844 168 830 q 139 880 139 859 q 153 915 139 900 q 189 929 168 929 m 189 759 q 274 794 239 759 q 309 880 309 829 q 274 965 309 930 q 189 1000 239 1000 q 103 965 138 1000 q 68 880 68 930 q 103 794 68 829 q 189 759 138 759 z "},"˜":{"ha":618,"x_min":68,"x_max":551,"o":"m 530 965 q 506 973 519 973 q 467 956 488 972 q 413 913 416 914 q 323 929 366 894 q 189 972 257 983 q 79 900 119 961 q 72 864 68 884 q 92 834 75 845 q 127 827 109 823 q 157 848 146 831 q 203 878 175 874 q 264 855 230 882 q 380 811 318 811 q 453 827 417 811 q 538 892 513 852 q 549 931 551 911 q 530 965 548 953 z "},"‘":{"ha":207,"x_min":68,"x_max":139,"o":"m 68 808 q 78 783 68 793 q 103 772 89 772 q 128 783 118 772 q 139 808 139 793 l 139 936 q 128 961 139 951 q 103 971 118 971 q 78 961 89 971 q 68 936 68 951 l 68 808 z "},"’":{"ha":207,"x_min":68,"x_max":139,"o":"m 68 808 q 78 783 68 793 q 103 772 89 772 q 128 783 118 772 q 139 808 139 793 l 139 936 q 128 961 139 951 q 103 971 118 971 q 78 961 89 971 q 68 936 68 951 l 68 808 z "},"“":{"ha":302,"x_min":68,"x_max":235,"o":"m 68 808 q 78 783 68 793 q 103 772 89 772 q 128 783 118 772 q 139 808 139 793 l 139 936 q 128 961 139 951 q 103 971 118 971 q 78 961 89 971 q 68 936 68 951 l 68 808 m 163 808 q 174 783 163 793 q 199 772 184 772 q 224 783 214 772 q 235 808 235 793 l 235 936 q 224 961 235 951 q 199 971 214 971 q 174 961 184 971 q 163 936 163 951 l 163 808 z "},"”":{"ha":302,"x_min":68,"x_max":235,"o":"m 68 808 q 78 783 68 793 q 103 772 89 772 q 128 783 118 772 q 139 808 139 793 l 139 936 q 128 961 139 951 q 103 971 118 971 q 78 961 89 971 q 68 936 68 951 l 68 808 m 163 808 q 174 783 163 793 q 199 772 184 772 q 224 783 214 772 q 235 808 235 793 l 235 936 q 224 961 235 951 q 199 971 214 971 q 174 961 184 971 q 163 936 163 951 l 163 808 z "},"€":{"ha":1054,"x_min":68,"x_max":986,"o":"m 926 852 q 968 870 951 852 q 986 912 986 888 q 968 954 986 937 q 926 971 951 971 l 458 971 q 248 884 335 971 q 161 675 161 798 l 161 650 l 127 650 q 85 633 102 650 q 68 591 68 616 q 85 549 68 566 q 127 532 102 532 l 161 532 l 161 439 l 127 439 q 85 422 102 439 q 68 380 68 405 q 85 338 68 355 q 127 321 102 321 l 161 321 l 161 296 q 248 87 161 174 q 458 0 335 0 l 926 0 q 968 18 951 0 q 986 59 986 35 q 968 101 986 83 q 926 119 951 119 l 458 119 q 332 170 384 119 q 280 296 280 222 l 280 321 l 675 321 q 718 338 700 321 q 734 380 734 355 q 718 422 734 405 q 675 439 700 439 l 280 439 l 280 532 l 675 532 q 718 549 700 532 q 734 591 734 566 q 718 633 734 616 q 675 650 700 650 l 280 650 l 280 675 q 332 801 280 749 q 458 852 384 852 l 926 852 z "},"−":{"ha":787,"x_min":68,"x_max":720,"o":"m 68 486 q 85 444 68 461 q 127 427 102 427 l 660 427 q 702 444 684 427 q 720 486 720 461 q 702 528 720 510 q 660 545 684 545 l 127 545 q 85 528 102 545 q 68 486 68 510 z "},"":{"ha":728,"x_min":0,"x_max":0,"o":""},"ﬁ":{"ha":728,"x_min":0,"x_max":0,"o":""},"":{"ha":733,"x_min":0,"x_max":0,"o":""},"ﬂ":{"ha":733,"x_min":0,"x_max":0,"o":""}}}
